<svg width="6654" height="1222" viewBox="0 0 6654 1222" fill="none" xmlns="http://www.w3.org/2000/svg">
<path d="M5235.3 465.047C5247.29 476.396 5255.36 490.536 5263 505C5266.14 501.948 5269.04 498.826 5271.84 495.447C5288.17 475.789 5306.23 459.708 5329 448C5329.61 447.682 5330.21 447.364 5330.84 447.036C5369.94 426.724 5420.7 425.811 5462.43 438.277C5482.61 444.737 5499.46 455.662 5514 471C5514.87 471.846 5515.73 472.691 5516.62 473.563C5540.26 497.817 5549.83 531.985 5553 565C5553.08 565.792 5553.16 566.585 5553.25 567.401C5554.27 578.588 5554.14 589.775 5554.13 600.999C5554.13 603.314 5554.13 605.628 5554.13 607.943C5554.14 614.204 5554.14 620.466 5554.13 626.727C5554.13 632.649 5554.13 638.57 5554.14 644.491C5554.14 656.957 5554.13 669.423 5554.13 681.889C5554.12 692.513 5554.13 703.137 5554.13 713.761C5554.14 726.157 5554.14 738.554 5554.13 750.95C5554.13 757.489 5554.13 764.028 5554.14 770.567C5554.15 797.061 5554.15 823.527 5553 850C5553.66 849.67 5554.32 849.34 5555 849C5557.43 848.971 5559.83 849.003 5562.25 849.086C5562.99 849.107 5563.72 849.129 5564.48 849.15C5566.04 849.197 5567.61 849.246 5569.17 849.297C5571.5 849.373 5573.83 849.441 5576.16 849.508C5583.98 849.741 5591.78 850.053 5599.59 850.477C5600.32 850.513 5601.05 850.55 5601.81 850.588C5606.88 850.882 5606.88 850.882 5608 852C5608 877.41 5608 902.82 5608 929C5532.43 929 5456.86 929 5379 929C5379 904.58 5379 880.16 5379 855C5396.48 852.815 5396.48 852.815 5403.19 852.625C5410.61 852.202 5417.1 850.764 5424 848C5424.81 847.686 5425.61 847.371 5426.44 847.047C5431.18 844.708 5432.69 842.084 5434.44 837.125C5436.47 830.157 5437.15 823.295 5437.16 816.06C5437.17 814.905 5437.17 814.905 5437.17 813.726C5437.19 811.16 5437.2 808.594 5437.21 806.028C5437.21 804.181 5437.22 802.334 5437.24 800.486C5437.26 795.47 5437.28 790.454 5437.3 785.438C5437.33 780.154 5437.35 774.87 5437.38 769.586C5437.42 760.684 5437.46 751.783 5437.5 742.881C5437.56 730.448 5437.62 718.015 5437.68 705.581C5437.72 695.819 5437.77 686.056 5437.82 676.293C5437.82 675.269 5437.83 674.245 5437.83 673.189C5437.88 661.722 5437.93 650.255 5437.97 638.788C5437.99 634.492 5438 630.196 5438.02 625.899C5438.04 621.916 5438.06 617.932 5438.07 613.949C5438.07 612.51 5438.08 611.071 5438.09 609.632C5438.19 590.766 5434.04 575.376 5427 558C5426.58 556.935 5426.15 555.871 5425.72 554.774C5424.39 551.497 5423.02 548.247 5421.62 545C5421.01 543.487 5421.01 543.487 5420.38 541.943C5416.23 532.609 5409.83 529.487 5400.69 525.75C5376.37 517.678 5347.98 520.52 5325.1 531.375C5306.07 541.185 5294.25 556.528 5287.19 576.375C5281.51 594.607 5280.85 613.135 5280.81 632.082C5280.8 634.107 5280.79 636.132 5280.79 638.157C5280.77 642.504 5280.75 646.851 5280.74 651.198C5280.72 658.1 5280.69 665.002 5280.66 671.904C5280.6 686.582 5280.55 701.26 5280.5 715.938C5280.44 731.73 5280.39 747.523 5280.32 763.316C5280.3 769.039 5280.28 774.762 5280.26 780.485C5280.19 803.673 5280.12 826.834 5279 850C5279.99 849.67 5280.98 849.34 5282 849C5284.4 848.972 5286.8 849.012 5289.2 849.086C5289.92 849.107 5290.63 849.129 5291.37 849.15C5292.89 849.197 5294.41 849.246 5295.93 849.297C5298.2 849.373 5300.47 849.441 5302.74 849.508C5330.35 850.353 5330.35 850.353 5332 852C5332 877.41 5332 902.82 5332 929C5257.42 929 5182.84 929 5106 929C5106 904.58 5106 880.16 5106 855C5115.9 854.01 5125.8 853.02 5136 852C5145.55 850.104 5153.26 848.332 5160 841C5163.65 835.238 5163.15 828.223 5163.13 821.65C5163.14 820.717 5163.14 819.783 5163.14 818.821C5163.15 815.696 5163.15 812.572 5163.15 809.447C5163.15 807.204 5163.15 804.962 5163.16 802.719C5163.16 796.625 5163.17 790.532 5163.17 784.438C5163.17 780.623 5163.17 776.809 5163.17 772.995C5163.18 760.353 5163.19 747.712 5163.19 735.071C5163.19 734.39 5163.19 733.709 5163.19 733.007C5163.19 732.325 5163.19 731.643 5163.19 730.941C5163.18 719.927 5163.19 708.913 5163.21 697.898C5163.22 686.558 5163.23 675.219 5163.23 663.879C5163.23 657.525 5163.23 651.171 5163.24 644.817C5163.25 638.826 5163.25 632.835 5163.24 626.844C5163.24 624.662 5163.25 622.479 5163.25 620.296C5163.68 574.615 5163.68 574.615 5144.04 535.004C5126.42 520.218 5101.23 520.372 5079.51 522.211C5059.63 524.626 5040.19 535.413 5027.62 550.934C5011.15 573.673 5007.7 598.213 5007.7 625.593C5007.69 627.732 5007.68 629.871 5007.67 632.01C5007.65 636.59 5007.64 641.17 5007.63 645.75C5007.62 653.017 5007.6 660.284 5007.57 667.55C5007.53 679.066 5007.5 690.581 5007.47 702.096C5007.42 722.665 5007.35 743.233 5007.28 763.802C5007.26 770.999 5007.24 778.197 5007.22 785.395C5007.21 789.907 5007.2 794.42 5007.18 798.932C5007.18 800.995 5007.17 803.059 5007.17 805.122C5007.15 820.101 5006.69 835.037 5006 850C5006.99 849.67 5007.98 849.34 5009 849C5011.33 848.972 5013.66 849.011 5015.98 849.086C5016.68 849.107 5017.37 849.129 5018.08 849.15C5019.56 849.197 5021.03 849.246 5022.5 849.297C5024.7 849.373 5026.9 849.441 5029.1 849.508C5056.37 850.37 5056.37 850.37 5058 852C5058 877.41 5058 902.82 5058 929C4983.09 929 4908.18 929 4831 929C4831 904.58 4831 880.16 4831 855C4841.23 854.01 4851.46 853.02 4862 852C4872.42 849.536 4872.42 849.536 4881.26 844.988C4883 844 4883 844 4885 844C4885.49 842.336 4885.96 840.668 4886.44 839C4886.7 838.072 4886.97 837.144 4887.25 836.188C4889.03 828.633 4889.15 821.23 4889.14 813.507C4889.14 812.367 4889.15 811.227 4889.15 810.053C4889.16 806.243 4889.16 802.433 4889.16 798.623C4889.17 795.888 4889.17 793.153 4889.18 790.417C4889.19 782.994 4889.2 775.571 4889.2 768.147C4889.2 763.509 4889.21 758.871 4889.21 754.233C4889.22 741.381 4889.23 728.53 4889.24 715.678C4889.24 714.857 4889.24 714.035 4889.24 713.189C4889.24 712.366 4889.24 711.542 4889.24 710.694C4889.24 709.026 4889.24 707.358 4889.24 705.689C4889.24 704.448 4889.24 704.448 4889.24 703.182C4889.24 689.767 4889.26 676.352 4889.29 662.938C4889.31 649.152 4889.32 635.367 4889.32 621.582C4889.32 613.847 4889.33 606.112 4889.35 598.377C4889.36 591.793 4889.37 585.208 4889.36 578.624C4889.36 575.267 4889.36 571.91 4889.37 568.553C4889.38 564.909 4889.38 561.265 4889.37 557.62C4889.38 556.567 4889.38 555.513 4889.39 554.427C4889.34 546.885 4888.47 540.247 4883.81 534.125C4877.3 529.203 4870.31 528.446 4862.41 527.867C4861.43 527.785 4860.44 527.703 4859.42 527.618C4856.3 527.36 4853.18 527.117 4850.06 526.875C4846.92 526.624 4843.77 526.37 4840.63 526.11C4838.67 525.95 4836.72 525.796 4834.77 525.646C4833.89 525.576 4833.02 525.506 4832.12 525.433C4830.96 525.344 4830.96 525.344 4829.77 525.252C4828 525 4828 525 4827 524C4827 498.26 4827 472.52 4827 446C4880.79 446 4934.58 446 4990 446C4990.85 449.383 4991.15 451.888 4991.21 455.319C4991.23 456.38 4991.25 457.441 4991.27 458.534C4991.29 460.242 4991.29 460.242 4991.32 461.984C4991.34 463.155 4991.36 464.326 4991.38 465.532C4991.44 469.271 4991.5 473.011 4991.56 476.75C4991.61 479.285 4991.65 481.82 4991.69 484.356C4991.8 490.57 4991.9 496.785 4992 503C4992.6 502.263 4993.2 501.525 4993.82 500.765C4994.62 499.788 4995.41 498.811 4996.23 497.805C4997.41 496.358 4997.41 496.358 4998.62 494.882C5002.28 490.457 5006.07 486.191 5010 482C5010.7 481.246 5010.7 481.246 5011.42 480.476C5066.63 421.744 5173.99 410.588 5235.3 465.047Z" fill="black"/>
<path d="M1432 295C1505.26 295 1578.52 295 1654 295C1664.49 322.976 1664.49 322.976 1667.94 332.688C1668.32 333.766 1668.7 334.844 1669.1 335.954C1671.99 344.108 1674.83 352.278 1677.63 360.461C1682.74 375.303 1687.96 390.101 1693.21 404.893C1695.23 410.58 1697.24 416.269 1699.26 421.958C1699.77 423.401 1700.28 424.845 1700.79 426.288C1705.89 440.663 1710.95 455.049 1716 469.438C1721.75 485.814 1727.55 502.174 1733.4 518.514C1738.78 533.532 1744.09 548.575 1749.38 563.625C1755.31 580.528 1761.26 597.426 1767.25 614.312C1767.59 615.266 1767.93 616.219 1768.27 617.202C1769.69 621.19 1771.1 625.179 1772.52 629.168C1777.47 643.152 1782.42 657.138 1787.38 671.125C1787.62 671.816 1787.86 672.506 1788.12 673.218C1795.08 692.888 1802.02 712.565 1808.94 732.25C1814.37 747.717 1819.82 763.179 1825.31 778.627C1825.97 780.484 1826.63 782.341 1827.29 784.198C1830.52 793.287 1833.76 802.369 1837.08 811.423C1838.41 815.045 1839.73 818.67 1841.05 822.295C1841.97 824.803 1842.91 827.307 1843.84 829.81C1844.39 831.329 1844.95 832.848 1845.5 834.367C1845.76 835.041 1846.01 835.715 1846.27 836.409C1847.83 840.738 1848.24 844.415 1848 849C1849.03 848.995 1850.05 848.99 1851.11 848.984C1855.01 848.966 1858.92 848.954 1862.82 848.945C1864.49 848.94 1866.16 848.933 1867.83 848.925C1876.96 848.878 1886.05 848.962 1895.16 849.441C1895.94 849.48 1896.71 849.519 1897.51 849.56C1902.88 849.875 1902.88 849.875 1904 851C1904 878.06 1904 905.12 1904 933C1822.16 933 1740.32 933 1656 933C1656 855 1656 855 1657 854C1659.59 853.733 1662.17 853.525 1664.77 853.352C1666.4 853.232 1668.03 853.112 1669.65 852.992C1672.22 852.808 1674.78 852.627 1677.34 852.453C1696.88 851.439 1696.88 851.439 1714.18 843.184C1716.4 840.524 1716.76 839.07 1716.94 835.625C1716.4 830.727 1715.31 826.116 1713.89 821.41C1713.68 820.682 1713.46 819.953 1713.24 819.203C1710.06 808.712 1706.39 798.384 1702.78 788.036C1701.85 785.344 1700.91 782.651 1699.98 779.957C1699.7 779.145 1699.41 778.332 1699.12 777.495C1698.72 776.347 1698.72 776.347 1698.32 775.175C1698.09 774.511 1697.86 773.848 1697.62 773.164C1696.85 770.472 1696.44 767.762 1696 765C1695.06 765.001 1694.12 765.002 1693.15 765.003C1670.08 765.025 1647.01 765.042 1623.94 765.052C1612.78 765.057 1601.62 765.064 1590.47 765.075C1580.72 765.086 1570.98 765.092 1561.23 765.094C1556.09 765.095 1550.95 765.098 1545.81 765.106C1520.85 765.14 1495.94 764.868 1471 764C1470.89 765.155 1470.77 766.311 1470.66 767.501C1470.11 771.875 1468.94 775.823 1467.5 779.977C1467.25 780.729 1466.99 781.481 1466.73 782.256C1465.9 784.715 1465.06 787.17 1464.21 789.625C1463.63 791.34 1463.05 793.055 1462.47 794.77C1460.95 799.263 1459.41 803.754 1457.88 808.244C1456.31 812.834 1454.75 817.427 1453.19 822.02C1450.14 831.016 1447.07 840.009 1444 849C1445.5 848.997 1445.5 848.997 1447.02 848.993C1450.78 848.985 1454.53 848.98 1458.29 848.976C1459.9 848.974 1461.52 848.971 1463.13 848.967C1487.83 848.91 1487.83 848.91 1499 850C1518.56 869.565 1500 905.331 1500 933C1426.41 933 1352.82 933 1277 933C1277 855 1277 855 1278 854C1280.29 853.76 1282.59 853.579 1284.89 853.422C1286.34 853.312 1287.79 853.201 1289.23 853.09C1291.5 852.918 1293.78 852.752 1296.05 852.604C1307.67 851.832 1319.68 850.34 1328.51 841.872C1335.85 832.666 1339.16 819.827 1343 808.875C1343.66 807.019 1344.31 805.164 1344.97 803.308C1350.12 788.724 1355.03 774.062 1359.88 759.377C1363.54 748.315 1367.3 737.296 1371.19 726.312C1376.67 710.814 1382.07 695.289 1387.44 679.75C1387.85 678.567 1388.25 677.385 1388.68 676.166C1394.21 660.146 1399.7 644.113 1405.16 628.068C1409.64 614.923 1414.2 601.811 1418.81 588.711C1423.47 575.438 1428.04 562.134 1432.56 548.812C1437.24 535.037 1441.97 521.283 1446.81 507.562C1447.08 506.797 1447.35 506.032 1447.63 505.244C1447.9 504.486 1448.16 503.728 1448.44 502.948C1448.97 501.451 1449.5 499.954 1450.02 498.457C1450.28 497.733 1450.53 497.009 1450.8 496.263C1456.03 481.399 1461.14 466.49 1466.2 451.566C1467.36 448.148 1468.53 444.73 1469.69 441.312C1469.98 440.461 1470.27 439.61 1470.56 438.733C1477.48 418.408 1484.72 398.198 1492 378C1491.27 378.01 1490.53 378.02 1489.78 378.031C1482.65 378.086 1475.65 377.768 1468.55 377.125C1467.52 377.036 1466.49 376.947 1465.44 376.856C1462.21 376.575 1458.98 376.288 1455.75 376C1453.54 375.807 1451.33 375.614 1449.12 375.422C1443.75 374.953 1438.37 374.479 1433 374C1427.84 348.176 1432 321.335 1432 295ZM1582 400C1578.5 410.624 1575 421.249 1571.5 431.875C1571.11 433.067 1571.11 433.067 1570.71 434.283C1563.53 456.086 1556.43 477.907 1549.47 499.781C1544.73 514.683 1539.86 529.534 1534.87 544.358C1530.78 556.552 1526.83 568.783 1523 581.062C1518.79 594.553 1514.35 607.949 1509.75 621.312C1503.86 638.412 1503.86 638.412 1498.12 655.562C1497.8 656.53 1497.47 657.498 1497.13 658.495C1496.7 659.83 1496.7 659.83 1496.26 661.191C1496.01 661.936 1495.77 662.68 1495.51 663.448C1494.74 666.873 1494.74 666.873 1495 674C1553.74 674 1612.48 674 1673 674C1672.12 666.932 1672.12 666.932 1670.38 660.264C1670.05 659.194 1669.72 658.123 1669.37 657.021C1669.01 655.872 1668.64 654.723 1668.27 653.539C1667.88 652.311 1667.5 651.082 1667.1 649.816C1666.05 646.455 1664.98 643.096 1663.92 639.738C1663.02 636.885 1662.12 634.03 1661.22 631.175C1654.09 608.504 1646.88 585.86 1639.66 563.219C1633.03 542.433 1626.47 521.629 1619.94 500.812C1612.56 477.3 1605.15 453.799 1597.69 430.312C1597.36 429.275 1597.36 429.275 1597.02 428.216C1595.58 423.682 1594.14 419.147 1592.7 414.613C1592.16 412.903 1592.16 412.903 1591.6 411.158C1591.27 410.12 1590.94 409.082 1590.6 408.013C1590.31 407.112 1590.03 406.21 1589.73 405.281C1589.17 403.517 1588.59 401.758 1588 400C1586.02 400 1584.04 400 1582 400Z" fill="black"/>
<path d="M2792 245C2848.43 245 2904.86 245 2963 245C2964.15 264.527 2964.15 264.527 2964.16 273.004C2964.16 273.982 2964.17 274.96 2964.17 275.968C2964.19 279.177 2964.2 282.385 2964.21 285.594C2964.21 287.922 2964.22 290.249 2964.24 292.577C2964.26 298.844 2964.28 305.112 2964.3 311.379C2964.33 317.948 2964.35 324.517 2964.38 331.086C2964.42 342.095 2964.46 353.104 2964.5 364.113C2964.54 375.443 2964.58 386.773 2964.63 398.104C2964.63 398.804 2964.63 399.505 2964.64 400.226C2964.65 403.741 2964.66 407.256 2964.68 410.77C2964.79 439.847 2964.9 468.923 2965 498C2965.36 497.549 2965.72 497.097 2966.1 496.632C2967.77 494.552 2969.45 492.475 2971.12 490.398C2971.98 489.334 2971.98 489.334 2972.85 488.248C2997.83 457.367 3035.83 436.708 3075.29 432.018C3101.54 429.295 3128.46 430.093 3154 437C3154.72 437.195 3155.45 437.391 3156.19 437.592C3178.84 443.938 3197.99 455.949 3215 472C3215.82 472.746 3216.64 473.493 3217.49 474.262C3249.29 504.231 3255.6 551.596 3257 593C3257.16 600.256 3257.14 607.514 3257.13 614.771C3257.13 616.87 3257.13 618.969 3257.13 621.068C3257.14 626.711 3257.14 632.355 3257.13 637.999C3257.13 643.964 3257.13 649.929 3257.14 655.895C3257.14 665.926 3257.14 675.957 3257.13 685.988C3257.12 697.48 3257.13 708.973 3257.13 720.465C3257.14 730.417 3257.14 740.368 3257.13 750.32C3257.13 756.225 3257.13 762.13 3257.14 768.036C3257.15 795.374 3256.91 822.676 3256 850C3256.62 849.998 3257.24 849.995 3257.87 849.993C3263.49 849.972 3269.11 849.956 3274.73 849.945C3276.85 849.94 3278.97 849.933 3281.09 849.925C3284.16 849.912 3287.22 849.907 3290.28 849.902C3291.68 849.895 3291.68 849.895 3293.12 849.887C3294.47 849.887 3294.47 849.887 3295.85 849.886C3296.63 849.884 3297.41 849.882 3298.21 849.88C3302.15 850.05 3306.08 850.564 3310 851C3310 876.74 3310 902.48 3310 929C3234.76 929 3159.52 929 3082 929C3082 904.58 3082 880.16 3082 855C3093.88 853.68 3105.76 852.36 3118 851C3129.46 847.636 3129.46 847.636 3136.81 839.562C3138.83 833.507 3139.15 828.155 3139.13 821.826C3139.14 820.899 3139.14 819.973 3139.14 819.018C3139.15 815.911 3139.15 812.804 3139.15 809.697C3139.15 807.469 3139.15 805.241 3139.16 803.014C3139.16 796.957 3139.17 790.901 3139.17 784.844C3139.17 781.055 3139.17 777.266 3139.17 773.477C3139.18 760.925 3139.19 748.374 3139.19 735.822C3139.19 735.146 3139.19 734.469 3139.19 733.772C3139.19 733.095 3139.19 732.418 3139.19 731.72C3139.18 720.775 3139.19 709.83 3139.21 698.885C3139.22 687.623 3139.23 676.361 3139.23 665.099C3139.23 658.786 3139.23 652.473 3139.24 646.16C3139.25 640.21 3139.25 634.26 3139.24 628.31C3139.24 626.139 3139.25 623.968 3139.25 621.797C3139.29 605.806 3139.12 589.62 3134.69 574.125C3134.36 572.943 3134.36 572.943 3134.03 571.736C3129.58 556.127 3122.43 540.271 3108.25 531.25C3086.06 519.448 3056.01 518.277 3032.04 525.354C3008.37 532.836 2988.37 547.969 2976.6 570.023C2967.97 587.052 2965.7 604.224 2965.7 623.144C2965.69 624.714 2965.68 626.284 2965.67 627.854C2965.65 631.219 2965.64 634.583 2965.63 637.948C2965.62 643.354 2965.6 648.76 2965.57 654.166C2965.53 662.81 2965.5 671.454 2965.47 680.098C2965.41 697.151 2965.34 714.204 2965.26 731.258C2965.25 734.051 2965.23 736.844 2965.22 739.637C2965.06 776.429 2964.6 813.213 2964 850C2964.6 849.998 2965.2 849.997 2965.81 849.995C2966.65 849.992 2967.49 849.99 2968.35 849.988C2969.28 849.985 2970.2 849.982 2971.15 849.98C2973.17 849.974 2975.19 849.968 2977.21 849.963C2981.37 849.951 2985.53 849.939 2989.69 849.922C2992.52 849.911 2995.35 849.906 2998.18 849.902C2999.1 849.897 3000.02 849.892 3000.97 849.887C3001.88 849.887 3002.79 849.887 3003.73 849.886C3004.51 849.884 3005.29 849.882 3006.09 849.88C3010.41 850.058 3014.7 850.57 3019 851C3019 876.74 3019 902.48 3019 929C2943.43 929 2867.86 929 2790 929C2790 904.58 2790 880.16 2790 855C2800.23 854.01 2810.46 853.02 2821 852C2834.32 849.221 2834.32 849.221 2844.47 840.891C2848 833.549 2848.15 825.576 2848.14 817.571C2848.14 816.757 2848.14 815.943 2848.15 815.104C2848.15 812.383 2848.15 809.662 2848.15 806.941C2848.16 804.967 2848.16 802.994 2848.17 801.021C2848.18 795.602 2848.18 790.184 2848.19 784.766C2848.2 778.92 2848.21 773.075 2848.22 767.23C2848.24 753.118 2848.26 739.006 2848.27 724.894C2848.27 720.908 2848.28 716.922 2848.28 712.936C2848.31 688.175 2848.33 663.415 2848.34 638.655C2848.34 632.923 2848.35 627.191 2848.35 621.46C2848.35 620.748 2848.35 620.036 2848.35 619.302C2848.36 596.214 2848.39 573.126 2848.44 550.038C2848.48 526.287 2848.51 502.536 2848.51 478.786C2848.51 464.803 2848.52 450.821 2848.56 436.839C2848.59 425.507 2848.6 414.176 2848.59 402.844C2848.58 397.064 2848.58 391.285 2848.61 385.505C2848.63 380.209 2848.63 374.914 2848.61 369.618C2848.61 367.707 2848.62 365.796 2848.63 363.884C2848.71 353.162 2848.53 343.562 2843 334C2835.76 326.724 2822.34 327.459 2812.88 326.938C2810.21 326.784 2807.54 326.625 2804.87 326.465C2803.69 326.399 2802.52 326.333 2801.31 326.265C2798.19 326.015 2795.09 325.515 2792 325C2792 298.6 2792 272.2 2792 245Z" fill="black"/>
<path d="M4260 446C4315.77 446 4371.54 446 4429 446C4429.59 456.591 4430.15 467 4430.14 477.575C4430.14 478.819 4430.14 480.062 4430.15 481.343C4430.15 484.731 4430.16 488.12 4430.16 491.508C4430.16 495.187 4430.17 498.867 4430.17 502.546C4430.18 508.905 4430.19 515.264 4430.2 521.624C4430.21 531.701 4430.23 541.778 4430.25 551.855C4430.26 555.316 4430.27 558.778 4430.27 562.239C4430.28 563.103 4430.28 563.968 4430.28 564.859C4430.3 574.671 4430.32 584.483 4430.34 594.295C4430.34 595.19 4430.34 596.085 4430.34 597.008C4430.37 611.504 4430.39 626 4430.4 640.496C4430.42 655.439 4430.45 670.382 4430.49 685.325C4430.51 694.508 4430.53 703.691 4430.53 712.875C4430.53 719.182 4430.54 725.489 4430.57 731.796C4430.58 735.418 4430.58 739.04 4430.58 742.663C4430.31 793.022 4430.31 793.022 4452 837C4469.48 851.844 4495.27 852.365 4517 851C4541.18 848.409 4563.18 837.825 4579.19 819.25C4598.19 795.457 4601.13 770.636 4601.19 741.297C4601.2 739.207 4601.21 737.116 4601.22 735.026C4601.24 728.195 4601.26 721.365 4601.27 714.535C4601.28 712.176 4601.28 709.816 4601.29 707.457C4601.31 697.642 4601.33 687.827 4601.34 678.012C4601.36 663.981 4601.39 649.95 4601.45 635.919C4601.49 626.031 4601.51 616.143 4601.51 606.255C4601.51 600.358 4601.53 594.461 4601.56 588.564C4601.59 583.018 4601.6 577.472 4601.58 571.926C4601.58 569.898 4601.59 567.869 4601.61 565.841C4601.79 548.854 4601.79 548.854 4594.33 533.878C4582.64 524.458 4558.38 526.865 4548 526C4548 499.6 4548 473.2 4548 446C4603.77 446 4659.54 446 4717 446C4718.16 502.702 4718.16 502.702 4718.14 526.769C4718.14 531.596 4718.15 536.424 4718.15 541.252C4718.16 548.253 4718.17 555.254 4718.17 562.256C4718.17 573.335 4718.19 584.415 4718.21 595.495C4718.21 597.399 4718.22 599.303 4718.22 601.207C4718.22 604.087 4718.23 606.967 4718.23 609.847C4718.25 620.589 4718.27 631.332 4718.28 642.074C4718.29 643.54 4718.29 643.54 4718.29 645.036C4718.31 660.981 4718.32 676.927 4718.33 692.872C4718.34 709.346 4718.36 725.82 4718.4 742.294C4718.42 752.407 4718.43 762.521 4718.42 772.634C4718.42 779.539 4718.43 786.443 4718.45 793.347C4718.46 797.322 4718.47 801.297 4718.46 805.273C4718.45 808.916 4718.46 812.558 4718.48 816.201C4718.49 818.13 4718.48 820.059 4718.46 821.988C4718.53 829.469 4719.3 836.358 4723 843C4734.14 852.914 4766.24 851.227 4775 852C4775 877.41 4775 902.82 4775 929C4723.52 929 4672.04 929 4619 929C4618.15 925.617 4617.85 923.112 4617.79 919.681C4617.77 918.62 4617.75 917.559 4617.73 916.466C4617.71 914.758 4617.71 914.758 4617.68 913.016C4617.66 911.845 4617.64 910.674 4617.62 909.468C4617.56 905.729 4617.5 901.989 4617.44 898.25C4617.39 895.715 4617.35 893.18 4617.31 890.645C4617.2 884.43 4617.1 878.215 4617 872C4616.63 872.424 4616.27 872.849 4615.89 873.286C4614.21 875.239 4612.52 877.19 4610.84 879.141C4610.27 879.808 4609.69 880.475 4609.1 881.163C4596.28 895.99 4581.83 907.999 4565 918C4564.43 918.341 4563.85 918.683 4563.26 919.034C4545.52 929.437 4526.24 935.65 4506 939C4505.25 939.125 4504.5 939.251 4503.73 939.38C4490.18 941.588 4476.92 942.478 4463.19 942.391C4460.17 942.375 4457.15 942.391 4454.13 942.41C4438.92 942.427 4424.64 940.842 4410.06 936.312C4409.24 936.058 4408.41 935.804 4407.56 935.542C4375.15 925.225 4349.19 905.181 4333.31 874.853C4316.79 842.043 4313.86 807.81 4313.84 771.668C4313.84 769.249 4313.83 766.829 4313.83 764.41C4313.82 759.23 4313.81 754.05 4313.8 748.871C4313.79 740.675 4313.77 732.48 4313.75 724.285C4313.74 721.472 4313.73 718.659 4313.73 715.845C4313.72 714.791 4313.72 714.791 4313.72 713.716C4313.7 705.748 4313.68 697.78 4313.66 689.812C4313.66 689.085 4313.66 688.358 4313.66 687.609C4313.63 675.806 4313.61 664.003 4313.6 652.199C4313.58 640.047 4313.55 627.894 4313.51 615.741C4313.49 608.931 4313.47 602.122 4313.47 595.312C4313.47 588.914 4313.45 582.517 4313.43 576.12C4313.42 573.776 4313.42 571.432 4313.42 569.088C4313.43 565.883 4313.41 562.678 4313.39 559.472C4313.4 558.551 4313.4 557.63 4313.41 556.681C4313.32 548.148 4311.67 539.645 4306 533C4292.98 525.526 4273.61 527.047 4260 526C4260 499.6 4260 473.2 4260 446Z" fill="black"/>
<path d="M6138.94 430.687C6140 430.689 6141.06 430.691 6142.15 430.693C6160.27 430.745 6178.03 431.561 6196 434C6197.27 434.172 6198.55 434.343 6199.86 434.52C6233.85 439.255 6267.27 447.659 6299.6 459.15C6301.32 459.758 6303.05 460.333 6304.79 460.885C6305.7 461.198 6306.6 461.51 6307.54 461.832C6308.37 462.104 6309.2 462.375 6310.05 462.655C6312 464 6312 464 6312.61 466.685C6313 469.952 6313.13 473.089 6313.13 476.377C6313.13 477.646 6313.13 478.916 6313.13 480.224C6313.13 481.625 6313.13 483.027 6313.13 484.428C6313.13 485.923 6313.13 487.418 6313.13 488.912C6313.13 492.16 6313.13 495.407 6313.13 498.654C6313.13 503.939 6313.13 509.223 6313.13 514.507C6313.14 521.185 6313.14 527.863 6313.14 534.541C6313.14 547.666 6313.15 560.791 6313.17 573.916C6313.17 575.983 6313.17 578.05 6313.18 580.117C6313.18 583.25 6313.18 586.382 6313.19 589.515C6313.2 601.323 6313.22 613.131 6313.23 624.939C6313.23 626.558 6313.23 626.558 6313.23 628.209C6313.25 645.697 6313.25 663.184 6313.25 680.671C6313.25 698.631 6313.27 716.59 6313.3 734.55C6313.32 745.624 6313.33 756.698 6313.31 767.773C6313.31 775.365 6313.32 782.956 6313.34 790.548C6313.35 794.926 6313.36 799.304 6313.34 803.682C6313.33 807.695 6313.33 811.707 6313.36 815.72C6313.37 817.167 6313.36 818.614 6313.35 820.061C6313.28 828.765 6313.81 836.69 6319 844C6330.39 851.757 6349.97 850.043 6363.36 850.754C6366 851 6366 851 6367 852C6367 877.41 6367 902.82 6367 929C6316.18 929 6265.36 929 6213 929C6213 875 6213 875 6214 873C6212.68 873 6211.36 873 6210 873C6209.93 873.705 6209.86 874.41 6209.79 875.137C6208.79 878.762 6206.87 881.051 6204.44 883.812C6203.96 884.368 6203.47 884.923 6202.98 885.496C6179.28 912.361 6152.01 931.259 6116.69 939.25C6115.97 939.413 6115.26 939.576 6114.52 939.744C6103.75 942.063 6092.98 942.207 6082 942.187C6081.25 942.186 6080.51 942.185 6079.74 942.184C6027.84 942.016 5982.12 929.184 5944.36 892.426C5924.75 871.746 5912.6 846.545 5903 820C5902.71 819.218 5902.42 818.437 5902.12 817.632C5897.33 804.722 5894.47 791.528 5892 778C5891.85 777.157 5891.69 776.315 5891.53 775.447C5878.68 704.2 5884.94 620.41 5917 555C5917.45 554.068 5917.91 553.135 5918.38 552.175C5924.87 538.962 5931.95 526.629 5941 515C5941.44 514.437 5941.87 513.874 5942.32 513.294C5976.36 469.955 6025.09 445.519 6078.44 435.25C6079.95 434.952 6079.95 434.952 6081.5 434.648C6100.46 431.191 6119.71 430.618 6138.94 430.687ZM6055 538C6055 538.66 6055 539.32 6055 540C6054.4 540.262 6053.8 540.523 6053.19 540.793C6050.87 542.07 6049.66 543.276 6048 545.312C6047.49 545.934 6046.98 546.555 6046.45 547.195C6045.97 547.791 6045.49 548.386 6045 549C6044.28 549.887 6043.56 550.774 6042.81 551.687C6042.22 552.451 6041.62 553.214 6041 554C6040.44 554.701 6039.89 555.402 6039.31 556.125C6037.82 558.07 6037.82 558.07 6037 561C6036.34 561.66 6035.68 562.32 6035 563C6032.92 565.826 6032.92 565.826 6032.11 568.715C6031.07 571.79 6029.78 574.602 6028.34 577.502C6016.78 600.78 6011.03 626.292 6007.69 651.937C6007.53 653.155 6007.37 654.373 6007.21 655.628C6005.1 672.952 6004.79 690.318 6004.81 707.75C6004.81 708.715 6004.81 709.679 6004.82 710.673C6004.87 745.462 6008.27 780.472 6024 812C6024.35 812.703 6024.69 813.406 6025.05 814.13C6035.4 834.861 6051.31 849.274 6073.29 857.184C6100.05 865.902 6130.44 863.599 6155.79 851.219C6175.58 840.867 6190.46 824.016 6198 803C6201.74 791.008 6203.15 779.059 6203.15 766.53C6203.15 765.512 6203.16 764.494 6203.16 763.446C6203.17 760.056 6203.17 756.666 6203.18 753.276C6203.18 750.838 6203.19 748.4 6203.2 745.962C6203.22 738.667 6203.23 731.372 6203.24 724.077C6203.24 720.638 6203.25 717.199 6203.25 713.761C6203.27 702.328 6203.28 690.895 6203.29 679.462C6203.29 676.503 6203.29 673.543 6203.3 670.584C6203.3 669.848 6203.3 669.113 6203.3 668.355C6203.31 656.414 6203.33 644.474 6203.36 632.534C6203.4 620.266 6203.41 607.998 6203.42 595.73C6203.42 588.846 6203.43 581.961 6203.45 575.076C6203.48 568.609 6203.48 562.142 6203.47 555.675C6203.47 553.298 6203.48 550.922 6203.49 548.545C6203.51 545.308 6203.5 542.072 6203.49 538.835C6203.5 537.888 6203.51 536.941 6203.52 535.965C6203.52 530.879 6203.52 530.879 6201.19 526.483C6198.13 524.408 6194.91 523.169 6191.44 522C6190.69 521.745 6189.94 521.49 6189.17 521.227C6147.71 507.578 6089.08 506.464 6055 538Z" fill="black"/>
<path d="M3637 431C3638.19 431.129 3638.19 431.129 3639.4 431.26C3658.92 433.548 3678.67 439.754 3696 449C3696.64 449.331 3697.28 449.662 3697.94 450.002C3727.38 465.252 3748.32 488.295 3759.28 519.656C3770.88 557.837 3767.46 600.742 3749.19 636.312C3743.3 647.288 3736.09 657.533 3728 667C3727.29 667.83 3726.59 668.66 3725.86 669.516C3682.92 718.539 3605.94 734.171 3543.8 738.629C3526.53 739.77 3509.31 740.157 3492 740C3495.67 772.114 3504.38 806.548 3530.52 828.25C3563.14 851.263 3603.65 853.966 3642.07 847.543C3671.49 842.093 3702.19 830.492 3725.25 810.969C3727 810 3727 810 3728.96 810.191C3731.67 811.265 3732.16 812.393 3733.49 814.969C3733.94 815.834 3734.39 816.698 3734.86 817.59C3735.34 818.55 3735.82 819.51 3736.31 820.5C3736.83 821.502 3737.34 822.505 3737.87 823.537C3743.09 833.884 3747.86 844.439 3752.57 855.023C3753.17 856.358 3753.77 857.693 3754.36 859.027C3754.8 860.005 3754.8 860.005 3755.24 861.003C3756.81 864.504 3758.47 867.944 3760.23 871.352C3760.6 872.068 3760.97 872.784 3761.36 873.522C3762.07 874.887 3762.79 876.248 3763.53 877.601C3765.6 881.567 3766.58 884.528 3766 889C3760.51 896.341 3752.75 902.22 3745 907C3743.37 908.027 3743.37 908.027 3741.7 909.074C3678.73 947.209 3588.49 951.117 3518.51 933.932C3503.38 929.912 3488.57 924.617 3474.85 917.022C3472.89 915.94 3470.92 914.896 3468.94 913.852C3455.88 906.865 3444.77 898.168 3434 888C3433.22 887.278 3432.43 886.556 3431.62 885.812C3419.55 874.321 3410.07 860.512 3402 846C3401.63 845.346 3401.26 844.692 3400.88 844.018C3376.32 800.527 3369.78 751.112 3369.75 701.875C3369.75 700.822 3369.75 699.769 3369.75 698.684C3369.83 623.44 3390.65 549.77 3443.59 494.476C3444.9 493.109 3446.19 491.731 3447.49 490.351C3495.97 440.049 3569.65 423.674 3637 431ZM3530 540C3529.04 540.992 3529.04 540.992 3528.05 542.004C3500.13 571.586 3487.68 612.733 3486.05 652.547C3486.02 653.38 3485.98 654.214 3485.95 655.073C3485.78 657.008 3485.78 657.008 3487 658C3489.64 658.114 3492.25 658.164 3494.89 658.168C3495.7 658.172 3496.51 658.176 3497.34 658.181C3499.98 658.191 3502.61 658.191 3505.25 658.187C3506.15 658.186 3507.04 658.186 3507.97 658.185C3539.63 658.112 3571.95 654.492 3601 641C3601.6 640.723 3602.2 640.446 3602.82 640.161C3627.23 628.817 3647.77 613.803 3658 588C3663.05 571.044 3658.87 549.38 3650.92 534.086C3643.53 522.173 3631.21 516.485 3618 513C3587.54 506.008 3551.2 517.216 3530 540Z" fill="black"/>
<path d="M2284 468C2284.51 468.529 2285.03 469.057 2285.55 469.602C2287.06 471.26 2287.06 471.26 2290 472C2291.54 473.566 2291.54 473.566 2293.19 475.562C2295.6 478.427 2298.06 481.025 2300.81 483.562C2305.72 488.355 2309.22 494.061 2312.9 499.805C2314.81 502.943 2314.81 502.943 2317 505C2317.7 506.465 2318.34 507.958 2318.95 509.465C2319.3 510.347 2319.65 511.229 2320.02 512.139C2320.57 513.524 2320.57 513.524 2321.13 514.937C2321.5 515.857 2321.87 516.777 2322.25 517.724C2322.78 519.05 2322.78 519.05 2323.32 520.402C2323.64 521.212 2323.97 522.021 2324.3 522.855C2325 525 2325 525 2325 528C2325.66 528.33 2326.32 528.66 2327 529C2327.7 531.775 2328.05 534.56 2328.46 537.392C2328.79 539.608 2329.14 541.822 2329.53 544.029C2331.24 554.34 2331.23 564.451 2331.13 574.875C2331.11 576.642 2331.11 578.409 2331.1 580.176C2331.08 584.451 2331.04 588.725 2331 593C2330.34 593 2329.68 593 2329 593C2329.33 595.31 2329.66 597.62 2330 600C2329.34 600 2328.68 600 2328 600C2327.89 601.292 2327.77 602.583 2327.66 603.914C2327.09 608.91 2325.95 613.569 2324.5 618.375C2324.24 619.229 2323.99 620.083 2323.72 620.963C2320.75 630.417 2316.49 639.188 2312 648C2309.94 652.109 2309.94 652.109 2307.94 656.25C2307 658 2307 658 2305 660C2302.26 663.142 2299.56 666.298 2296.96 669.555C2288.65 679.94 2279.95 688.429 2269 696C2268.28 696.568 2267.55 697.137 2266.8 697.723C2265 699 2265 699 2263 699C2263 699.66 2263 700.32 2263 701C2260.69 701.66 2258.38 702.32 2256 703C2256 703.66 2256 704.32 2256 705C2215.29 725.212 2174.85 736.236 2130 742C2128.69 742.169 2127.39 742.339 2126.04 742.514C2103.35 745.358 2080.82 745.332 2058 745C2059.35 758.014 2059.35 758.014 2061.69 770.875C2061.85 771.603 2062.02 772.33 2062.19 773.08C2065.21 785.679 2069.64 802.639 2079 812C2079.62 813.114 2080.24 814.227 2080.88 815.375C2082.57 818.427 2084.48 820.562 2087 823C2087.52 823.887 2088.03 824.774 2088.56 825.687C2099.41 842.313 2123.21 849.825 2141.48 854.101C2192.12 864.458 2244.85 847.388 2287.25 820.25C2287.9 819.819 2288.55 819.389 2289.22 818.945C2293.7 816 2293.7 816 2297 816C2298.34 818.622 2299.67 821.248 2301 823.875C2301.38 824.621 2301.76 825.368 2302.16 826.137C2302.52 826.852 2302.88 827.567 2303.25 828.305C2303.59 828.964 2303.92 829.624 2304.27 830.304C2305 832 2305 832 2305 834C2305.66 834.33 2306.32 834.66 2307 835C2307.7 836.99 2308.36 838.992 2309 841C2310.05 843.302 2311.14 845.588 2312.26 847.859C2312.72 848.805 2312.72 848.805 2313.19 849.77C2314.5 852.445 2315.81 855.117 2317.13 857.788C2318.09 859.748 2319.05 861.71 2320.01 863.672C2320.58 864.838 2321.16 866.004 2321.75 867.206C2323 870 2323 870 2323 872C2323.66 872.33 2324.32 872.66 2325 873C2325.67 875 2326.33 877 2327 879C2327.86 880.674 2328.74 882.34 2329.63 884C2331.57 887.852 2332.92 890.621 2332 895C2329.11 899.503 2325.21 902.381 2320.94 905.512C2320.22 906.044 2319.49 906.576 2318.75 907.125C2318.06 907.622 2317.38 908.12 2316.67 908.633C2314.87 909.914 2314.87 909.914 2314 912C2313.01 912 2312.02 912 2311 912C2311 912.66 2311 913.32 2311 914C2309.35 914.33 2307.7 914.66 2306 915C2306 915.66 2306 916.32 2306 917C2300.81 919.689 2295.68 922.266 2290.16 924.21C2287.91 925.034 2285.69 925.934 2283.47 926.848C2249.84 940.33 2212.65 948.13 2176.4 948.168C2174.67 948.173 2174.67 948.173 2172.9 948.178C2170.47 948.183 2168.05 948.185 2165.62 948.185C2161.97 948.187 2158.32 948.206 2154.67 948.224C2136.8 948.269 2119.29 947.483 2101.75 943.812C2100.19 943.49 2100.19 943.49 2098.6 943.161C2049.12 932.574 2004.3 908.168 1976.29 864.999C1975.86 864.34 1975.44 863.68 1975 863C1974.6 862.388 1974.2 861.776 1973.79 861.145C1931.12 795.261 1927.39 702.956 1943 628C1951.42 590.189 1967.05 553.589 1991 523C1991.76 521.979 1992.51 520.958 1993.29 519.906C2027.02 474.385 2077.23 446.82 2132.91 438.141C2185.73 430.417 2239.75 435.936 2284 468ZM2101.17 542.484C2074.17 573.76 2060.18 615.952 2060 657C2062.87 659.87 2072.55 658.247 2076.75 658.25C2077.93 658.251 2077.93 658.251 2079.14 658.252C2124 658.191 2173.58 650.865 2209 621C2209.64 620.516 2210.29 620.033 2210.95 619.535C2224.82 608.784 2231.81 591.935 2234 575C2235.46 559.153 2231.48 542.838 2222 530C2221.41 529.193 2220.81 528.386 2220.2 527.555C2211.69 517.683 2196.34 514.187 2184 512C2152.34 509.813 2123.39 519.294 2101.17 542.484Z" fill="black"/>
<path d="M4199.19 442.625C4200.18 442.902 4201.18 443.179 4202.21 443.464C4208.26 445.226 4213.59 446.944 4217.63 452.071C4219.52 456.109 4219.4 459.571 4219.36 463.973C4219.36 464.87 4219.36 465.768 4219.36 466.692C4219.37 469.673 4219.35 472.653 4219.33 475.633C4219.33 477.742 4219.32 479.852 4219.32 481.961C4219.32 486.412 4219.3 490.862 4219.28 495.313C4219.25 500.878 4219.24 506.443 4219.24 512.008C4219.21 540.35 4218.8 568.669 4218 597C4206.73 598.241 4195.47 599.345 4184.15 600.07C4182.85 600.156 4181.55 600.242 4180.2 600.331C4177.49 600.51 4174.77 600.686 4172.05 600.86C4168.6 601.081 4165.15 601.309 4161.7 601.539C4158.35 601.761 4155 601.978 4151.65 602.195C4149.82 602.317 4149.82 602.317 4147.95 602.442C4141.29 602.865 4134.67 603.111 4128 603C4127.31 595.061 4126.91 587.165 4126.79 579.199C4126.77 578.345 4126.76 577.491 4126.75 576.611C4126.69 573.074 4126.63 569.537 4126.6 566C4126.57 563.378 4126.53 560.758 4126.48 558.137C4126.47 556.96 4126.47 556.96 4126.47 555.759C4126.34 550.053 4125.02 545.316 4123 540C4122.67 539.01 4122.34 538.02 4122 537C4119.93 535.867 4119.93 535.867 4117 535C4116.34 534.756 4115.69 534.513 4115.01 534.262C4107.62 531.724 4100.64 531.497 4092.88 531.563C4091.59 531.572 4090.3 531.582 4088.97 531.592C4066.11 532.018 4046.97 540.658 4031 557C4010.74 579.222 4007.7 608.459 4007.7 637.191C4007.69 639.167 4007.68 641.144 4007.67 643.12C4007.65 647.347 4007.64 651.574 4007.63 655.801C4007.62 662.514 4007.6 669.227 4007.57 675.941C4007.53 686.585 4007.5 697.229 4007.47 707.873C4007.42 726.87 4007.35 745.867 4007.28 764.865C4007.26 771.508 4007.24 778.151 4007.22 784.794C4007.17 806.549 4007.05 828.267 4006 850C4007.17 849.995 4008.34 849.989 4009.55 849.984C4044.83 849.824 4044.83 849.823 4062.19 850.438C4063.3 850.477 4064.42 850.516 4065.57 850.556C4087.42 851.419 4087.42 851.419 4089 853C4089 878.08 4089 903.16 4089 929C4004.19 929 3919.38 929 3832 929C3832 904.58 3832 880.16 3832 855C3849.82 853.02 3849.82 853.02 3868 851C3877.46 848.485 3877.46 848.485 3885 843C3887.97 837.456 3889.12 832.224 3889.13 825.983C3889.14 824.991 3889.14 823.999 3889.15 822.977C3889.15 821.895 3889.15 820.813 3889.15 819.698C3889.15 818.542 3889.15 817.387 3889.16 816.196C3889.17 812.993 3889.17 809.789 3889.17 806.585C3889.18 803.129 3889.19 799.672 3889.2 796.215C3889.22 787.868 3889.23 779.522 3889.24 771.175C3889.24 767.241 3889.25 763.307 3889.25 759.373C3889.27 746.29 3889.28 733.207 3889.29 720.124C3889.29 716.731 3889.29 713.338 3889.3 709.944C3889.3 708.679 3889.3 708.679 3889.3 707.389C3889.3 693.733 3889.33 680.078 3889.36 666.423C3889.4 652.392 3889.41 638.362 3889.42 624.331C3889.42 616.458 3889.43 608.585 3889.45 600.712C3889.48 594.005 3889.48 587.299 3889.47 580.592C3889.47 577.174 3889.47 573.756 3889.49 570.338C3889.51 566.622 3889.5 562.907 3889.49 559.191C3889.5 558.125 3889.51 557.058 3889.52 555.959C3889.45 547.777 3888.43 538.517 3882.5 532.438C3871 527.713 3859.07 527.163 3846.81 526.375C3844.12 526.195 3841.43 526.012 3838.74 525.824C3837.08 525.709 3835.41 525.599 3833.75 525.494C3828.11 525.111 3828.11 525.111 3827 524C3827 498.26 3827 472.52 3827 446C3880.46 446 3933.92 446 3989 446C3989.9 449.603 3990.15 452.375 3990.21 456.054C3990.23 457.275 3990.25 458.496 3990.27 459.754C3990.29 461.724 3990.29 461.724 3990.32 463.734C3990.34 465.096 3990.36 466.458 3990.38 467.82C3990.43 471.397 3990.48 474.975 3990.53 478.552C3990.58 482.205 3990.64 485.859 3990.69 489.512C3990.8 496.674 3990.9 503.837 3991 511C3991.53 510.133 3992.05 509.267 3992.59 508.374C3993.3 507.211 3994.01 506.049 3994.72 504.887C3995.07 504.319 3995.41 503.75 3995.77 503.165C4001.81 493.284 4009.05 484.41 4017 476C4017.75 475.189 4018.49 474.378 4019.26 473.543C4067.08 423.357 4137.45 425.17 4199.19 442.625Z" fill="black"/>
<path d="M2543.94 342.867C2544.65 342.866 2545.36 342.865 2546.1 342.864C2547.62 342.864 2549.15 342.865 2550.68 342.87C2552.91 342.875 2555.14 342.87 2557.37 342.863C2570.95 342.875 2584.4 343.477 2598 344C2598 377.66 2598 411.32 2598 446C2640.24 446 2682.48 446 2726 446C2726 451.702 2725.93 456.813 2725.31 462.4C2725.24 463.079 2725.17 463.758 2725.09 464.458C2724.85 466.668 2724.6 468.877 2724.36 471.086C2724.18 472.635 2724.01 474.185 2723.84 475.734C2723.48 478.964 2723.11 482.193 2722.75 485.421C2722.28 489.559 2721.82 493.699 2721.38 497.839C2721.03 501.032 2720.67 504.222 2720.3 507.413C2720.13 508.94 2719.96 510.467 2719.8 511.994C2719.57 514.123 2719.32 516.25 2719.07 518.376C2718.94 519.586 2718.8 520.796 2718.66 522.042C2718 525 2718 525 2716.89 526.892C2713.95 528.614 2710.99 528.4 2707.69 528.356C2706.94 528.358 2706.2 528.361 2705.43 528.363C2702.96 528.366 2700.48 528.347 2698 528.328C2696.25 528.325 2694.5 528.323 2692.75 528.322C2689.05 528.318 2685.36 528.303 2681.66 528.281C2677.04 528.254 2672.41 528.242 2667.79 528.237C2644.51 528.211 2621.27 527.773 2598 527C2598.03 527.682 2598.06 528.364 2598.09 529.067C2599.14 554.769 2599.16 580.466 2599.2 606.187C2599.21 614.028 2599.23 621.868 2599.25 629.709C2599.26 632.413 2599.27 635.117 2599.27 637.821C2599.28 638.496 2599.28 639.171 2599.28 639.866C2599.3 647.478 2599.32 655.09 2599.34 662.702C2599.34 663.395 2599.34 664.087 2599.34 664.801C2599.37 676.076 2599.39 687.351 2599.4 698.627C2599.42 710.281 2599.45 721.936 2599.49 733.591C2599.51 740.104 2599.53 746.617 2599.53 753.13C2599.53 759.24 2599.55 765.349 2599.57 771.459C2599.58 773.689 2599.58 775.92 2599.58 778.15C2599.56 795.704 2600.86 810.173 2608.88 826.125C2609.39 827.208 2609.91 828.291 2610.44 829.406C2616.03 840.804 2622.97 845.898 2634.95 850.012C2665.25 858.665 2694.41 850.602 2721.35 836.25C2724 835 2724 835 2727 835C2733.81 850.229 2739.82 865.733 2745.77 881.315C2746.08 882.136 2746.4 882.957 2746.72 883.803C2747.33 885.402 2747.94 887.002 2748.54 888.603C2750.38 893.443 2752.3 898.24 2754.38 902.986C2755.14 905.445 2755.23 907.44 2755 910C2750.78 914.507 2744.55 917.07 2739.12 919.875C2738.09 920.409 2737.06 920.944 2735.99 921.495C2703.23 938.224 2669.22 943.14 2632.81 943.25C2631.93 943.255 2631.04 943.26 2630.13 943.266C2614.36 943.338 2598.61 942.509 2583.12 939.312C2582.31 939.146 2581.5 938.979 2580.66 938.808C2553.01 932.806 2522.06 920.206 2504.72 896.691C2493.46 879.054 2488.61 859.388 2485 839C2484.82 838 2484.65 837 2484.46 835.97C2482.59 823.89 2482.73 811.863 2482.76 799.663C2482.76 797.228 2482.75 794.793 2482.75 792.358C2482.75 786.457 2482.75 780.555 2482.76 774.653C2482.77 767.733 2482.77 760.813 2482.77 753.893C2482.77 741.499 2482.78 729.104 2482.79 716.71C2482.81 704.787 2482.82 692.864 2482.81 680.94C2482.81 679.845 2482.81 679.845 2482.81 678.727C2482.81 677.998 2482.81 677.268 2482.81 676.517C2482.81 662.829 2482.82 649.142 2482.83 635.454C2482.83 631.348 2482.83 627.242 2482.83 623.136C2482.84 591.071 2483.12 559.054 2484 527C2461.56 527 2439.12 527 2416 527C2416 515.75 2416 515.75 2416.63 511.111C2416.76 510.073 2416.9 509.035 2417.04 507.966C2417.27 506.337 2417.27 506.337 2417.5 504.676C2417.65 503.53 2417.8 502.385 2417.96 501.204C2418.45 497.573 2418.94 493.943 2419.44 490.312C2419.77 487.864 2420.1 485.415 2420.42 482.967C2422.76 465.572 2422.76 465.572 2424 457C2427.9 455.836 2431.78 454.8 2435.75 453.922C2463.55 447.76 2485.8 436.529 2501.58 412.039C2504.49 407.421 2507.27 402.729 2510 398C2510.42 397.272 2510.84 396.544 2511.27 395.794C2519.06 382.111 2524.9 367.638 2530.72 353.042C2535.01 342.875 2535.01 342.875 2543.94 342.867Z" fill="black"/>
<path d="M6428 446C6484.76 446 6541.52 446 6600 446C6600 579.32 6600 712.64 6600 850C6612.54 850 6625.08 850 6638 850C6653 851 6653 851 6654 852C6654 877.41 6654 902.82 6654 929C6578.76 929 6503.52 929 6426 929C6426 904.58 6426 880.16 6426 855C6435.9 854.01 6445.8 853.02 6456 852C6465.61 849.597 6473.49 847.497 6480 840C6483.06 832.542 6483.43 824.964 6483.39 817.007C6483.39 815.85 6483.4 814.693 6483.4 813.501C6483.42 809.649 6483.41 805.798 6483.4 801.947C6483.41 799.175 6483.42 796.403 6483.42 793.632C6483.44 786.9 6483.44 780.169 6483.44 773.438C6483.43 767.964 6483.44 762.491 6483.44 757.017C6483.44 755.846 6483.44 755.846 6483.44 754.651C6483.44 753.065 6483.45 751.478 6483.45 749.892C6483.46 735.037 6483.46 720.182 6483.44 705.327C6483.43 691.752 6483.45 678.177 6483.47 664.602C6483.5 650.643 6483.51 636.683 6483.5 622.724C6483.49 614.895 6483.5 607.066 6483.51 599.237C6483.53 592.574 6483.53 585.911 6483.51 579.248C6483.5 575.852 6483.5 572.456 6483.52 569.06C6483.53 565.371 6483.52 561.682 6483.5 557.993C6483.51 556.931 6483.52 555.869 6483.53 554.776C6483.46 547.664 6482.28 541.38 6479 535C6474.57 531.12 6470.52 530.018 6464.78 529.611C6463.95 529.55 6463.12 529.49 6462.26 529.427C6461.4 529.367 6460.53 529.308 6459.64 529.246C6458.84 529.188 6458.04 529.13 6457.21 529.07C6454.22 528.856 6451.24 528.647 6448.25 528.438C6441.57 527.963 6434.89 527.489 6428 527C6428 500.27 6428 473.54 6428 446Z" fill="black"/>
<path d="M6597.84 254.168C6600.35 256.351 6602.68 258.622 6605 261C6606.15 262.104 6606.15 262.104 6607.33 263.231C6620.78 276.89 6626.26 295.437 6626.25 314.233C6625.96 333.579 6619 349.544 6605.87 363.625C6589.43 379.363 6568.94 384.735 6546.68 384.305C6526.62 383.487 6507.86 375.71 6494 361C6479.3 344.079 6477.06 324.491 6478 303C6479.39 285.092 6488.17 269.323 6501 257C6528.04 234.586 6569.7 232.714 6597.84 254.168Z" fill="black"/>
<path d="M5783 816C5786.63 818.747 5789.82 821.741 5793 825C5794.17 826.141 5794.17 826.141 5795.37 827.305C5806.78 839.022 5812.31 853.967 5812.42 870.233C5812.4 871.27 5812.39 872.307 5812.37 873.375C5812.36 875.018 5812.36 875.018 5812.34 876.695C5811.96 895.301 5806.21 912.426 5793 926C5778.29 940.065 5760.83 944.503 5741.01 944.286C5719.77 943.725 5701.15 938.553 5686 923C5673.06 908.93 5669.15 888.592 5669.87 870.056C5670.9 853.895 5676.63 839.494 5687 827C5687.53 826.356 5688.06 825.711 5688.61 825.047C5711.69 799.678 5755.25 798.772 5783 816Z" fill="black"/>
<g clip-path="url(#clip0_2460_554)">
<mask id="mask0_2460_554" style="mask-type:luminance" maskUnits="userSpaceOnUse" x="2" y="151" width="1135" height="1071">
<path d="M607.246 266.175C735.862 268.987 863.991 286.036 988.868 316.998L998.105 319.292L995.467 328.437C964.404 436.247 922.929 540.95 871.764 640.797L867.368 649.372L801.743 611.487L805.7 603.734C843.333 529.983 875.455 453.45 901.731 374.931C782.883 350.757 661.542 339.616 540.273 341.708L530.945 341.868V227.131C382.676 230.3 235.117 251.982 92.2149 291.649C125.269 419.584 172.55 543.636 232.996 661.136L236.991 668.904L171.352 706.808L166.941 698.267C93.413 555.858 38.518 404.27 3.85059 247.788L2.0293 239.585L10.044 237.059C200.106 177.101 398.956 148.124 598.222 151.245L607.246 151.385V266.175ZM810.526 750.418C743.78 860.396 664.953 962.833 575.699 1055.5L569.095 1062.35L562.491 1055.5C484.659 974.689 414.725 886.416 353.829 792.187L348.598 784.09L414.227 746.201L418.966 753.5C464.02 822.97 514.239 889.054 569.095 951.07C649.455 860.232 719.775 760.718 778.593 654.648L783.119 646.493L882.489 703.861C953.882 573.868 1008.88 435.242 1045.98 291.649C918.659 256.305 787.583 235.232 655.595 228.827L646.87 228.401V152.607L656.469 153.057C816.569 160.588 975.293 188.84 1128.15 237.054L1136.16 239.58L1134.34 247.783C1091.23 442.368 1016.9 629.063 914.567 800.066L909.934 807.815L810.526 750.418ZM236.46 374.931C274.953 489.944 325.974 600.598 388.42 704.572L393.222 712.567L293.857 769.935C370.738 896.759 463.286 1013.71 569.095 1117.63C663.363 1025.04 747.148 922.064 818.69 810.965L823.415 803.622L889.064 841.522L883.875 849.614C797.303 984.496 693.47 1107.83 575.289 1216.09L569.095 1221.77L562.902 1216.09C415.947 1081.46 291.427 923.75 194.497 749.621L190.106 741.737L289.519 684.339C227.648 571.549 178.342 452.063 142.718 328.437L140.086 319.292L149.322 316.998C258.223 289.997 369.637 273.567 481.687 267.953L491.316 267.47V343.24L482.625 343.694C399.937 347.984 317.597 358.428 236.46 374.931ZM299.191 402.985C477.741 373.004 660.45 373.004 839 402.985L849.957 404.826L846.073 415.232C782.762 584.854 691.407 743.08 576.168 882.721L569.095 891.286L562.023 882.721C446.788 743.08 355.433 584.854 292.123 415.232L288.234 404.826L299.191 402.985ZM394.28 466.049C440.957 573.168 499.664 674.851 569.095 768.834C638.527 674.851 697.233 573.168 743.911 466.049C627.802 452.909 510.389 452.909 394.28 466.049Z" fill="white"/>
</mask>
<g mask="url(#mask0_2460_554)">
<path fill-rule="evenodd" clip-rule="evenodd" d="M1136.16 148.119V1221.77H2.0293V148.119H1136.16Z" fill="url(#paint0_linear_2460_554)"/>
</g>
<mask id="mask1_2460_554" style="mask-type:luminance" maskUnits="userSpaceOnUse" x="0" y="0" width="1138" height="1115">
<path d="M408.207 1114.87C172.419 1045.45 0.285156 827.434 0.285156 569.172C0.285156 523.707 5.65726 479.508 15.7299 437.126C33.6337 491.692 54.0062 545.452 76.7845 598.178C86.1035 758.78 172.26 898.745 299.05 981.877C333.404 1027.83 369.825 1072.2 408.207 1114.87ZM1122.46 437.087C1132.54 479.475 1137.9 523.698 1137.9 569.172C1137.9 827.424 965.78 1045.44 730.007 1114.86C768.399 1072.2 804.849 1027.8 839.217 981.829C965.998 898.663 1052.14 758.664 1061.42 598.033C1084.17 545.341 1104.55 491.629 1122.46 437.087ZM569.095 0.362305C718.485 0.362305 854.391 57.9868 955.886 152.173C898.503 140.225 840.57 130.935 782.317 124.346C717.784 93.3548 645.469 75.992 569.095 75.992C492.663 75.992 420.295 93.3789 355.723 124.418C297.514 131.008 239.614 140.279 182.255 152.211C283.75 57.9916 419.686 0.362305 569.095 0.362305Z" fill="white"/>
</mask>
<g mask="url(#mask1_2460_554)">
<path fill-rule="evenodd" clip-rule="evenodd" d="M1137.9 0.386475V1114.86H0.290039V0.386475H1137.9Z" fill="url(#paint1_linear_2460_554)"/>
</g>
<mask id="mask2_2460_554" style="mask-type:luminance" maskUnits="userSpaceOnUse" x="497" y="493" width="142" height="142">
<path d="M568.279 493.576C575.738 493.576 582.926 494.736 589.675 496.881C580.83 501.577 574.801 510.872 574.801 521.577C574.801 537.007 587.308 549.515 602.738 549.515C615.512 549.515 626.285 540.935 629.613 529.225C635.483 539.519 638.846 551.442 638.846 564.143C638.846 603.115 607.251 634.71 568.279 634.71C529.312 634.71 497.712 603.115 497.712 564.143C497.712 525.171 529.312 493.576 568.279 493.576Z" fill="white"/>
</mask>
<g mask="url(#mask2_2460_554)">
<path fill-rule="evenodd" clip-rule="evenodd" d="M638.855 493.586V634.701H497.692V493.586H638.855Z" fill="url(#paint2_linear_2460_554)"/>
</g>
<mask id="mask3_2460_554" style="mask-type:luminance" maskUnits="userSpaceOnUse" x="503" y="499" width="130" height="130">
<path d="M629.251 542.698C622.956 550.582 613.284 555.462 602.738 555.462C584.023 555.462 568.849 540.292 568.849 521.582C568.849 513.577 571.66 506.011 576.564 500.055C573.816 499.704 571.055 499.528 568.279 499.528C532.597 499.528 503.659 528.461 503.659 564.143C503.659 599.83 532.597 628.763 568.279 628.763C603.965 628.763 632.898 599.83 632.898 564.143C632.898 556.79 631.662 549.553 629.251 542.698Z" fill="white"/>
</mask>
<g mask="url(#mask3_2460_554)">
<path fill-rule="evenodd" clip-rule="evenodd" d="M632.913 499.528V628.758H503.683V499.528H632.913Z" fill="url(#paint3_linear_2460_554)"/>
</g>
<mask id="mask4_2460_554" style="mask-type:luminance" maskUnits="userSpaceOnUse" x="6" y="6" width="1126" height="591">
<path d="M16.9428 459.522C10.933 489.943 7.44981 520.819 6.50293 551.819C25.9913 567.588 47.0835 582.511 69.5816 596.501C50.2865 551.544 32.7257 505.838 16.9428 459.522ZM1121.24 459.469C1105.44 505.813 1087.85 551.554 1068.53 596.55C1091.06 582.54 1112.18 567.607 1131.69 551.819C1130.75 520.799 1127.26 489.91 1121.24 459.469ZM783.984 118.544C834.792 124.317 885.373 132.143 935.553 141.989C833.488 54.3153 704.272 6.31421 569.095 6.31421C433.899 6.31421 304.645 54.325 202.58 142.037C252.731 132.206 303.278 124.394 354.057 118.616C421.305 86.4609 494.553 70.0403 569.095 70.0403C643.58 70.0403 716.77 86.4368 783.984 118.544Z" fill="white"/>
</mask>
<g mask="url(#mask4_2460_554)">
<path fill-rule="evenodd" clip-rule="evenodd" d="M1131.67 6.32861V596.535H6.52246V6.32861H1131.67Z" fill="url(#paint4_linear_2460_554)"/>
</g>
<mask id="mask5_2460_554" style="mask-type:luminance" maskUnits="userSpaceOnUse" x="9" y="156" width="1121" height="570">
<path d="M223.846 669.629C195.705 659.701 168.714 648.604 143.027 636.439C84.2579 511.929 39.4985 380.965 9.65723 246.498L9.01953 243.619L11.8312 242.74C201.048 183.105 399.763 154.139 598.129 157.197L601.294 157.245V271.996L607.115 272.127C735.273 274.929 863.01 291.934 987.433 322.775L990.674 323.577L989.752 326.785C958.751 434.193 917.431 538.582 866.464 638.082L864.923 641.092L809.612 609.159L810.999 606.444C848.792 532.447 881.005 455.614 907.373 376.82L909.508 370.438L902.914 369.1C783.684 344.848 661.817 333.635 540.167 335.756L536.896 335.814V221.053L530.819 221.179C382.1 224.358 233.957 246.131 90.6204 285.915L84.9874 287.48L86.4512 293.137C119.607 421.473 167.076 545.988 227.706 663.86L229.107 666.585L223.846 669.629ZM384.284 710.861C352.211 705.407 321.012 698.566 290.871 690.436L297.538 686.59L294.736 681.484C233.092 569.1 183.903 449.971 148.438 326.795L147.52 323.582L150.762 322.78C259.267 295.871 370.342 279.518 481.987 273.9L485.368 273.731V337.597L482.315 337.756C399.342 342.09 316.698 352.544 235.276 369.1L228.686 370.443L230.822 376.82C269.441 492.224 320.674 603.308 383.323 707.639L385.004 710.446L384.284 710.861ZM847.323 690.431C816.84 698.663 785.274 705.557 752.814 711.05C763.471 693.407 773.8 675.569 783.8 657.536L785.385 654.677L847.323 690.431ZM995.047 636.493C966.877 649.836 937.123 661.884 906.011 672.513C968.78 552.094 1017.77 424.638 1051.74 293.132L1053.2 287.475L1047.57 285.915C919.847 250.46 788.279 229.309 655.884 222.879L652.826 222.73V158.839L656.198 158.999C815.738 166.487 974.032 194.729 1126.36 242.73L1129.17 243.619L1128.54 246.493C1098.67 381.081 1053.8 511.992 995.047 636.493ZM300.181 408.855C478.006 378.984 660.194 378.984 838.014 408.855L841.864 409.497L840.502 413.149C800.385 520.611 748.925 623.555 687.247 720.045C660.981 722.833 634.237 724.726 607.091 725.644C662.459 644.623 710.166 558.409 749.37 468.421L752.587 461.039L744.582 460.136C628.058 446.952 510.137 446.952 393.618 460.136L385.613 461.044L388.83 468.426C428.034 558.409 475.735 644.623 531.104 725.644C503.958 724.726 477.219 722.833 450.947 720.045C389.27 623.555 337.814 520.611 297.698 413.149L296.335 409.497L300.181 408.855Z" fill="white"/>
</mask>
<g mask="url(#mask5_2460_554)">
<path fill-rule="evenodd" clip-rule="evenodd" d="M1129.16 154.158V725.668H9.03418V154.158H1129.16Z" fill="url(#paint5_linear_2460_554)"/>
</g>
</g>
<defs>
<linearGradient id="paint0_linear_2460_554" x1="1.03233e+06" y1="-11462.9" x2="1.03233e+06" y2="-7.49389e+06" gradientUnits="userSpaceOnUse">
<stop/>
<stop offset="1"/>
</linearGradient>
<linearGradient id="paint1_linear_2460_554" x1="2625.77" y1="11.2425" x2="2625.77" y2="-7.50538e+06" gradientUnits="userSpaceOnUse">
<stop/>
<stop offset="1"/>
</linearGradient>
<linearGradient id="paint2_linear_2460_554" x1="3.25693e+06" y1="-3.2816e+06" x2="3.25693e+06" y2="-4.21292e+06" gradientUnits="userSpaceOnUse">
<stop/>
<stop offset="1"/>
</linearGradient>
<linearGradient id="paint3_linear_2460_554" x1="1.94224e+06" y1="-1.95636e+06" x2="1.94224e+06" y2="-2.45869e+06" gradientUnits="userSpaceOnUse">
<stop/>
<stop offset="1"/>
</linearGradient>
<linearGradient id="paint4_linear_2460_554" x1="47310.6" y1="-23849" x2="47310.6" y2="-4.39741e+06" gradientUnits="userSpaceOnUse">
<stop/>
<stop offset="1"/>
</linearGradient>
<linearGradient id="paint5_linear_2460_554" x1="1.1749e+06" y1="-33613.9" x2="1.1749e+06" y2="-4.38764e+06" gradientUnits="userSpaceOnUse">
<stop/>
<stop offset="1"/>
</linearGradient>
<clipPath id="clip0_2460_554">
<rect width="1138.19" height="1221.77" fill="white"/>
</clipPath>
</defs>
</svg>
