<svg width="6784" height="1222" viewBox="0 0 6784 1222" fill="none" xmlns="http://www.w3.org/2000/svg">
<path d="M5365.3 397.047C5377.29 408.396 5385.36 422.536 5393 437C5396.14 433.948 5399.04 430.826 5401.84 427.447C5418.17 407.789 5436.23 391.708 5459 380C5459.61 379.682 5460.21 379.364 5460.84 379.036C5499.94 358.724 5550.7 357.811 5592.43 370.277C5612.61 376.737 5629.46 387.662 5644 403C5644.87 403.846 5645.73 404.691 5646.62 405.563C5670.26 429.817 5679.83 463.985 5683 497C5683.08 497.792 5683.16 498.585 5683.25 499.401C5684.27 510.588 5684.14 521.775 5684.13 532.999C5684.13 535.314 5684.13 537.628 5684.13 539.943C5684.14 546.204 5684.14 552.466 5684.13 558.727C5684.13 564.649 5684.13 570.57 5684.14 576.491C5684.14 588.957 5684.13 601.423 5684.13 613.889C5684.12 624.513 5684.13 635.137 5684.13 645.761C5684.14 658.157 5684.14 670.554 5684.13 682.95C5684.13 689.489 5684.13 696.028 5684.14 702.567C5684.15 729.061 5684.15 755.527 5683 782C5683.66 781.67 5684.32 781.34 5685 781C5687.43 780.971 5689.83 781.003 5692.25 781.086C5692.99 781.107 5693.72 781.129 5694.48 781.15C5696.04 781.197 5697.61 781.246 5699.17 781.297C5701.5 781.373 5703.83 781.441 5706.16 781.508C5713.98 781.741 5721.78 782.053 5729.59 782.477C5730.32 782.513 5731.05 782.55 5731.81 782.588C5736.88 782.882 5736.88 782.882 5738 784C5738 809.41 5738 834.82 5738 861C5662.43 861 5586.86 861 5509 861C5509 836.58 5509 812.16 5509 787C5526.48 784.815 5526.48 784.815 5533.19 784.625C5540.61 784.202 5547.1 782.764 5554 780C5554.81 779.686 5555.61 779.371 5556.44 779.047C5561.18 776.708 5562.69 774.084 5564.44 769.125C5566.47 762.157 5567.15 755.295 5567.16 748.06C5567.17 746.905 5567.17 746.905 5567.17 745.726C5567.19 743.16 5567.2 740.594 5567.21 738.028C5567.21 736.181 5567.22 734.334 5567.24 732.486C5567.26 727.47 5567.28 722.454 5567.3 717.438C5567.33 712.154 5567.35 706.87 5567.38 701.586C5567.42 692.684 5567.46 683.783 5567.5 674.881C5567.56 662.448 5567.62 650.015 5567.68 637.581C5567.72 627.819 5567.77 618.056 5567.82 608.293C5567.82 607.269 5567.83 606.245 5567.83 605.189C5567.88 593.722 5567.93 582.255 5567.97 570.788C5567.99 566.492 5568 562.196 5568.02 557.899C5568.04 553.916 5568.06 549.932 5568.07 545.949C5568.07 544.51 5568.08 543.071 5568.09 541.632C5568.19 522.766 5564.04 507.376 5557 490C5556.58 488.935 5556.15 487.871 5555.72 486.774C5554.39 483.497 5553.02 480.247 5551.62 477C5551.01 475.487 5551.01 475.487 5550.38 473.943C5546.23 464.609 5539.83 461.487 5530.69 457.75C5506.37 449.678 5477.98 452.52 5455.1 463.375C5436.07 473.185 5424.25 488.528 5417.19 508.375C5411.51 526.607 5410.85 545.135 5410.81 564.082C5410.8 566.107 5410.79 568.132 5410.79 570.157C5410.77 574.504 5410.75 578.851 5410.74 583.198C5410.72 590.1 5410.69 597.002 5410.66 603.904C5410.6 618.582 5410.55 633.26 5410.5 647.938C5410.44 663.73 5410.39 679.523 5410.32 695.316C5410.3 701.039 5410.28 706.762 5410.26 712.485C5410.19 735.673 5410.12 758.834 5409 782C5409.99 781.67 5410.98 781.34 5412 781C5414.4 780.972 5416.8 781.012 5419.2 781.086C5419.92 781.107 5420.63 781.129 5421.37 781.15C5422.89 781.197 5424.41 781.246 5425.93 781.297C5428.2 781.373 5430.47 781.441 5432.74 781.508C5460.35 782.353 5460.35 782.353 5462 784C5462 809.41 5462 834.82 5462 861C5387.42 861 5312.84 861 5236 861C5236 836.58 5236 812.16 5236 787C5245.9 786.01 5255.8 785.02 5266 784C5275.55 782.104 5283.26 780.332 5290 773C5293.65 767.238 5293.15 760.223 5293.13 753.65C5293.14 752.717 5293.14 751.783 5293.14 750.821C5293.15 747.696 5293.15 744.572 5293.15 741.447C5293.15 739.204 5293.15 736.962 5293.16 734.719C5293.16 728.625 5293.17 722.532 5293.17 716.438C5293.17 712.623 5293.17 708.809 5293.17 704.995C5293.18 692.353 5293.19 679.712 5293.19 667.071C5293.19 666.39 5293.19 665.709 5293.19 665.007C5293.19 664.325 5293.19 663.643 5293.19 662.941C5293.18 651.927 5293.19 640.913 5293.21 629.898C5293.22 618.558 5293.23 607.219 5293.23 595.879C5293.23 589.525 5293.23 583.171 5293.24 576.817C5293.25 570.826 5293.25 564.835 5293.24 558.844C5293.24 556.662 5293.25 554.479 5293.25 552.296C5293.68 506.615 5293.68 506.615 5274.04 467.004C5256.42 452.218 5231.23 452.372 5209.51 454.211C5189.63 456.626 5170.19 467.413 5157.62 482.934C5141.15 505.673 5137.7 530.213 5137.7 557.593C5137.69 559.732 5137.68 561.871 5137.67 564.01C5137.65 568.59 5137.64 573.17 5137.63 577.75C5137.62 585.017 5137.6 592.284 5137.57 599.55C5137.53 611.066 5137.5 622.581 5137.47 634.096C5137.42 654.665 5137.35 675.233 5137.28 695.802C5137.26 702.999 5137.24 710.197 5137.22 717.395C5137.21 721.907 5137.2 726.42 5137.18 730.932C5137.18 732.995 5137.17 735.059 5137.17 737.122C5137.15 752.101 5136.69 767.037 5136 782C5136.99 781.67 5137.98 781.34 5139 781C5141.33 780.972 5143.66 781.011 5145.98 781.086C5146.68 781.107 5147.37 781.129 5148.08 781.15C5149.56 781.197 5151.03 781.246 5152.5 781.297C5154.7 781.373 5156.9 781.441 5159.1 781.508C5186.37 782.37 5186.37 782.37 5188 784C5188 809.41 5188 834.82 5188 861C5113.09 861 5038.18 861 4961 861C4961 836.58 4961 812.16 4961 787C4971.23 786.01 4981.46 785.02 4992 784C5002.42 781.536 5002.42 781.536 5011.26 776.988C5013 776 5013 776 5015 776C5015.49 774.336 5015.96 772.668 5016.44 771C5016.7 770.072 5016.97 769.144 5017.25 768.188C5019.03 760.633 5019.15 753.23 5019.14 745.507C5019.14 744.367 5019.15 743.227 5019.15 742.053C5019.16 738.243 5019.16 734.433 5019.16 730.623C5019.17 727.888 5019.17 725.153 5019.18 722.417C5019.19 714.994 5019.2 707.571 5019.2 700.147C5019.2 695.509 5019.21 690.871 5019.21 686.233C5019.22 673.381 5019.23 660.53 5019.24 647.678C5019.24 646.857 5019.24 646.035 5019.24 645.189C5019.24 644.366 5019.24 643.542 5019.24 642.694C5019.24 641.026 5019.24 639.358 5019.24 637.689C5019.24 636.448 5019.24 636.448 5019.24 635.182C5019.24 621.767 5019.26 608.352 5019.29 594.938C5019.31 581.152 5019.32 567.367 5019.32 553.582C5019.32 545.847 5019.33 538.112 5019.35 530.377C5019.36 523.793 5019.37 517.208 5019.36 510.624C5019.36 507.267 5019.36 503.91 5019.37 500.553C5019.38 496.909 5019.38 493.265 5019.37 489.62C5019.38 488.567 5019.38 487.513 5019.39 486.427C5019.34 478.885 5018.47 472.247 5013.81 466.125C5007.3 461.203 5000.31 460.446 4992.41 459.867C4991.43 459.785 4990.44 459.703 4989.42 459.618C4986.3 459.36 4983.18 459.117 4980.06 458.875C4976.92 458.624 4973.77 458.37 4970.63 458.11C4968.67 457.95 4966.72 457.796 4964.77 457.646C4963.89 457.576 4963.02 457.506 4962.12 457.433C4960.96 457.344 4960.96 457.344 4959.77 457.252C4958 457 4958 457 4957 456C4957 430.26 4957 404.52 4957 378C5010.79 378 5064.58 378 5120 378C5120.85 381.383 5121.15 383.888 5121.21 387.319C5121.23 388.38 5121.25 389.441 5121.27 390.534C5121.29 392.242 5121.29 392.242 5121.32 393.984C5121.34 395.155 5121.36 396.326 5121.38 397.532C5121.44 401.271 5121.5 405.011 5121.56 408.75C5121.61 411.285 5121.65 413.82 5121.69 416.356C5121.8 422.57 5121.9 428.785 5122 435C5122.6 434.263 5123.2 433.525 5123.82 432.765C5124.62 431.788 5125.41 430.811 5126.23 429.805C5127.41 428.358 5127.41 428.358 5128.62 426.882C5132.28 422.457 5136.07 418.191 5140 414C5140.7 413.246 5140.7 413.246 5141.42 412.476C5196.63 353.744 5303.99 342.588 5365.3 397.047Z" fill="white"/>
<path d="M1563 227C1636.26 227 1709.52 227 1785 227C1795.49 254.976 1795.49 254.976 1798.94 264.688C1799.32 265.766 1799.7 266.844 1800.1 267.954C1802.99 276.108 1805.83 284.278 1808.63 292.461C1813.74 307.303 1818.96 322.101 1824.21 336.893C1826.23 342.58 1828.24 348.269 1830.26 353.958C1830.77 355.401 1831.28 356.845 1831.79 358.288C1836.89 372.663 1841.95 387.049 1847 401.438C1852.75 417.814 1858.55 434.174 1864.4 450.514C1869.78 465.532 1875.09 480.575 1880.38 495.625C1886.31 512.528 1892.26 529.426 1898.25 546.312C1898.59 547.266 1898.93 548.219 1899.27 549.202C1900.69 553.19 1902.1 557.179 1903.52 561.168C1908.47 575.152 1913.42 589.138 1918.38 603.125C1918.62 603.816 1918.86 604.506 1919.12 605.218C1926.08 624.888 1933.02 644.565 1939.94 664.25C1945.37 679.717 1950.82 695.179 1956.31 710.627C1956.97 712.484 1957.63 714.341 1958.29 716.198C1961.52 725.287 1964.76 734.369 1968.08 743.423C1969.41 747.045 1970.73 750.67 1972.05 754.295C1972.97 756.803 1973.91 759.307 1974.84 761.81C1975.39 763.329 1975.95 764.848 1976.5 766.367C1976.76 767.041 1977.01 767.715 1977.27 768.409C1978.83 772.738 1979.24 776.415 1979 781C1980.03 780.995 1981.05 780.99 1982.11 780.984C1986.01 780.966 1989.92 780.954 1993.82 780.945C1995.49 780.94 1997.16 780.933 1998.83 780.925C2007.96 780.878 2017.05 780.962 2026.16 781.441C2026.94 781.48 2027.71 781.519 2028.51 781.56C2033.88 781.875 2033.88 781.875 2035 783C2035 810.06 2035 837.12 2035 865C1953.16 865 1871.32 865 1787 865C1787 787 1787 787 1788 786C1790.59 785.733 1793.17 785.525 1795.77 785.352C1797.4 785.232 1799.03 785.112 1800.65 784.992C1803.22 784.808 1805.78 784.627 1808.34 784.453C1827.88 783.439 1827.88 783.439 1845.18 775.184C1847.4 772.524 1847.76 771.07 1847.94 767.625C1847.4 762.727 1846.31 758.116 1844.89 753.41C1844.68 752.682 1844.46 751.953 1844.24 751.203C1841.06 740.712 1837.39 730.384 1833.78 720.036C1832.85 717.344 1831.91 714.651 1830.98 711.957C1830.7 711.145 1830.41 710.332 1830.12 709.495C1829.72 708.347 1829.72 708.347 1829.32 707.175C1829.09 706.511 1828.86 705.848 1828.62 705.164C1827.85 702.472 1827.44 699.762 1827 697C1826.06 697.001 1825.12 697.002 1824.15 697.003C1801.08 697.025 1778.01 697.042 1754.94 697.052C1743.78 697.057 1732.62 697.064 1721.47 697.075C1711.72 697.086 1701.98 697.092 1692.23 697.094C1687.09 697.095 1681.95 697.098 1676.81 697.106C1651.85 697.14 1626.94 696.868 1602 696C1601.89 697.155 1601.77 698.311 1601.66 699.501C1601.11 703.875 1599.94 707.823 1598.5 711.977C1598.25 712.729 1597.99 713.481 1597.73 714.256C1596.9 716.715 1596.06 719.17 1595.21 721.625C1594.63 723.34 1594.05 725.055 1593.47 726.77C1591.95 731.263 1590.41 735.754 1588.88 740.244C1587.31 744.834 1585.75 749.427 1584.19 754.02C1581.14 763.016 1578.07 772.009 1575 781C1576.5 780.997 1576.5 780.997 1578.02 780.993C1581.78 780.985 1585.53 780.98 1589.29 780.976C1590.9 780.974 1592.52 780.971 1594.13 780.967C1618.83 780.91 1618.83 780.91 1630 782C1649.56 801.565 1631 837.331 1631 865C1557.41 865 1483.82 865 1408 865C1408 787 1408 787 1409 786C1411.29 785.76 1413.59 785.579 1415.89 785.422C1417.34 785.312 1418.79 785.201 1420.23 785.09C1422.5 784.918 1424.78 784.752 1427.05 784.604C1438.67 783.832 1450.68 782.34 1459.51 773.872C1466.85 764.666 1470.16 751.827 1474 740.875C1474.66 739.019 1475.31 737.164 1475.97 735.308C1481.12 720.724 1486.03 706.062 1490.88 691.377C1494.54 680.315 1498.3 669.296 1502.19 658.312C1507.67 642.814 1513.07 627.289 1518.44 611.75C1518.85 610.567 1519.25 609.385 1519.68 608.166C1525.21 592.146 1530.7 576.113 1536.16 560.068C1540.64 546.923 1545.2 533.811 1549.81 520.711C1554.47 507.438 1559.04 494.134 1563.56 480.812C1568.24 467.037 1572.97 453.283 1577.81 439.562C1578.08 438.797 1578.35 438.032 1578.63 437.244C1578.9 436.486 1579.16 435.728 1579.44 434.948C1579.97 433.451 1580.5 431.954 1581.02 430.457C1581.28 429.733 1581.53 429.009 1581.8 428.263C1587.03 413.399 1592.14 398.49 1597.2 383.566C1598.36 380.148 1599.53 376.73 1600.69 373.312C1600.98 372.461 1601.27 371.61 1601.56 370.733C1608.48 350.408 1615.72 330.198 1623 310C1622.27 310.01 1621.53 310.02 1620.78 310.031C1613.65 310.086 1606.65 309.768 1599.55 309.125C1598.52 309.036 1597.49 308.947 1596.44 308.856C1593.21 308.575 1589.98 308.288 1586.75 308C1584.54 307.807 1582.33 307.614 1580.12 307.422C1574.75 306.953 1569.37 306.479 1564 306C1558.84 280.176 1563 253.335 1563 227ZM1713 332C1709.5 342.624 1706 353.249 1702.5 363.875C1702.11 365.067 1702.11 365.067 1701.71 366.283C1694.53 388.086 1687.43 409.907 1680.47 431.781C1675.73 446.683 1670.86 461.534 1665.87 476.358C1661.78 488.552 1657.83 500.783 1654 513.062C1649.79 526.553 1645.35 539.949 1640.75 553.312C1634.86 570.412 1634.86 570.412 1629.12 587.562C1628.8 588.53 1628.47 589.498 1628.13 590.495C1627.7 591.83 1627.7 591.83 1627.26 593.191C1627.01 593.936 1626.77 594.68 1626.51 595.448C1625.74 598.873 1625.74 598.873 1626 606C1684.74 606 1743.48 606 1804 606C1803.12 598.932 1803.12 598.932 1801.38 592.264C1801.05 591.194 1800.72 590.123 1800.37 589.021C1800.01 587.872 1799.64 586.723 1799.27 585.539C1798.88 584.311 1798.5 583.082 1798.1 581.816C1797.05 578.455 1795.98 575.096 1794.92 571.738C1794.02 568.885 1793.12 566.03 1792.22 563.175C1785.09 540.504 1777.88 517.86 1770.66 495.219C1764.03 474.433 1757.47 453.629 1750.94 432.812C1743.56 409.3 1736.15 385.799 1728.69 362.312C1728.36 361.275 1728.36 361.275 1728.02 360.216C1726.58 355.682 1725.14 351.147 1723.7 346.613C1723.16 344.903 1723.16 344.903 1722.6 343.158C1722.27 342.12 1721.94 341.082 1721.6 340.013C1721.31 339.112 1721.03 338.21 1720.73 337.281C1720.17 335.517 1719.59 333.758 1719 332C1717.02 332 1715.04 332 1713 332Z" fill="white"/>
<path d="M2922 177C2978.43 177 3034.86 177 3093 177C3094.15 196.527 3094.15 196.527 3094.16 205.004C3094.16 205.982 3094.17 206.96 3094.17 207.968C3094.19 211.177 3094.2 214.385 3094.21 217.594C3094.21 219.922 3094.22 222.249 3094.24 224.577C3094.26 230.844 3094.28 237.112 3094.3 243.379C3094.33 249.948 3094.35 256.517 3094.38 263.086C3094.42 274.095 3094.46 285.104 3094.5 296.113C3094.54 307.443 3094.58 318.773 3094.63 330.104C3094.63 330.804 3094.63 331.505 3094.64 332.226C3094.65 335.741 3094.66 339.256 3094.68 342.77C3094.79 371.847 3094.9 400.923 3095 430C3095.36 429.549 3095.72 429.097 3096.1 428.632C3097.77 426.552 3099.45 424.475 3101.12 422.398C3101.98 421.334 3101.98 421.334 3102.85 420.248C3127.83 389.367 3165.83 368.708 3205.29 364.018C3231.54 361.295 3258.46 362.093 3284 369C3284.72 369.195 3285.45 369.391 3286.19 369.592C3308.84 375.938 3327.99 387.949 3345 404C3345.82 404.746 3346.64 405.493 3347.49 406.262C3379.29 436.231 3385.6 483.596 3387 525C3387.16 532.256 3387.14 539.514 3387.13 546.771C3387.13 548.87 3387.13 550.969 3387.13 553.068C3387.14 558.711 3387.14 564.355 3387.13 569.999C3387.13 575.964 3387.13 581.929 3387.14 587.895C3387.14 597.926 3387.14 607.957 3387.13 617.988C3387.12 629.48 3387.13 640.973 3387.13 652.465C3387.14 662.417 3387.14 672.368 3387.13 682.32C3387.13 688.225 3387.13 694.13 3387.14 700.036C3387.15 727.374 3386.91 754.676 3386 782C3386.62 781.998 3387.24 781.995 3387.87 781.993C3393.49 781.972 3399.11 781.956 3404.73 781.945C3406.85 781.94 3408.97 781.933 3411.09 781.925C3414.16 781.912 3417.22 781.907 3420.28 781.902C3421.68 781.895 3421.68 781.895 3423.12 781.887C3424.47 781.887 3424.47 781.887 3425.85 781.886C3426.63 781.884 3427.41 781.882 3428.21 781.88C3432.15 782.05 3436.08 782.564 3440 783C3440 808.74 3440 834.48 3440 861C3364.76 861 3289.52 861 3212 861C3212 836.58 3212 812.16 3212 787C3223.88 785.68 3235.76 784.36 3248 783C3259.46 779.636 3259.46 779.636 3266.81 771.562C3268.83 765.507 3269.15 760.155 3269.13 753.826C3269.14 752.899 3269.14 751.973 3269.14 751.018C3269.15 747.911 3269.15 744.804 3269.15 741.697C3269.15 739.469 3269.15 737.241 3269.16 735.014C3269.16 728.957 3269.17 722.901 3269.17 716.844C3269.17 713.055 3269.17 709.266 3269.17 705.477C3269.18 692.925 3269.19 680.374 3269.19 667.822C3269.19 667.146 3269.19 666.469 3269.19 665.772C3269.19 665.095 3269.19 664.418 3269.19 663.72C3269.18 652.775 3269.19 641.83 3269.21 630.885C3269.22 619.623 3269.23 608.361 3269.23 597.099C3269.23 590.786 3269.23 584.473 3269.24 578.16C3269.25 572.21 3269.25 566.26 3269.24 560.31C3269.24 558.139 3269.25 555.968 3269.25 553.797C3269.29 537.806 3269.12 521.62 3264.69 506.125C3264.36 504.943 3264.36 504.943 3264.03 503.736C3259.58 488.127 3252.43 472.271 3238.25 463.25C3216.06 451.448 3186.01 450.277 3162.04 457.354C3138.37 464.836 3118.37 479.969 3106.6 502.023C3097.97 519.052 3095.7 536.224 3095.7 555.144C3095.69 556.714 3095.68 558.284 3095.67 559.854C3095.65 563.219 3095.64 566.583 3095.63 569.948C3095.62 575.354 3095.6 580.76 3095.57 586.166C3095.53 594.81 3095.5 603.454 3095.47 612.098C3095.41 629.151 3095.34 646.204 3095.26 663.258C3095.25 666.051 3095.23 668.844 3095.22 671.637C3095.06 708.429 3094.6 745.213 3094 782C3094.6 781.998 3095.2 781.997 3095.81 781.995C3096.65 781.992 3097.49 781.99 3098.35 781.988C3099.28 781.985 3100.2 781.982 3101.15 781.98C3103.17 781.974 3105.19 781.968 3107.21 781.963C3111.37 781.951 3115.53 781.939 3119.69 781.922C3122.52 781.911 3125.35 781.906 3128.18 781.902C3129.1 781.897 3130.02 781.892 3130.97 781.887C3131.88 781.887 3132.79 781.887 3133.73 781.886C3134.51 781.884 3135.29 781.882 3136.09 781.88C3140.41 782.058 3144.7 782.57 3149 783C3149 808.74 3149 834.48 3149 861C3073.43 861 2997.86 861 2920 861C2920 836.58 2920 812.16 2920 787C2930.23 786.01 2940.46 785.02 2951 784C2964.32 781.221 2964.32 781.221 2974.47 772.891C2978 765.549 2978.15 757.576 2978.14 749.571C2978.14 748.757 2978.14 747.943 2978.15 747.104C2978.15 744.383 2978.15 741.662 2978.15 738.941C2978.16 736.967 2978.16 734.994 2978.17 733.021C2978.18 727.602 2978.18 722.184 2978.19 716.766C2978.2 710.92 2978.21 705.075 2978.22 699.23C2978.24 685.118 2978.26 671.006 2978.27 656.894C2978.27 652.908 2978.28 648.922 2978.28 644.936C2978.31 620.175 2978.33 595.415 2978.34 570.655C2978.34 564.923 2978.35 559.191 2978.35 553.46C2978.35 552.748 2978.35 552.036 2978.35 551.302C2978.36 528.214 2978.39 505.126 2978.44 482.038C2978.48 458.287 2978.51 434.536 2978.51 410.786C2978.51 396.803 2978.52 382.821 2978.56 368.839C2978.59 357.507 2978.6 346.176 2978.59 334.844C2978.58 329.064 2978.58 323.285 2978.61 317.505C2978.63 312.209 2978.63 306.914 2978.61 301.618C2978.61 299.707 2978.62 297.796 2978.63 295.884C2978.71 285.162 2978.53 275.562 2973 266C2965.76 258.724 2952.34 259.459 2942.88 258.938C2940.21 258.784 2937.54 258.625 2934.87 258.465C2933.69 258.399 2932.52 258.333 2931.31 258.265C2928.19 258.015 2925.09 257.515 2922 257C2922 230.6 2922 204.2 2922 177Z" fill="white"/>
<path d="M4390 378C4445.77 378 4501.54 378 4559 378C4559.59 388.591 4560.15 399 4560.14 409.575C4560.14 410.819 4560.14 412.062 4560.15 413.343C4560.15 416.731 4560.16 420.12 4560.16 423.508C4560.16 427.187 4560.17 430.867 4560.17 434.546C4560.18 440.905 4560.19 447.264 4560.2 453.624C4560.21 463.701 4560.23 473.778 4560.25 483.855C4560.26 487.316 4560.27 490.778 4560.27 494.239C4560.28 495.103 4560.28 495.968 4560.28 496.859C4560.3 506.671 4560.32 516.483 4560.34 526.295C4560.34 527.19 4560.34 528.085 4560.34 529.008C4560.37 543.504 4560.39 558 4560.4 572.496C4560.42 587.439 4560.45 602.382 4560.49 617.325C4560.51 626.508 4560.53 635.691 4560.53 644.875C4560.53 651.182 4560.54 657.489 4560.57 663.796C4560.58 667.418 4560.58 671.04 4560.58 674.663C4560.31 725.022 4560.31 725.022 4582 769C4599.48 783.844 4625.27 784.365 4647 783C4671.18 780.409 4693.18 769.825 4709.19 751.25C4728.19 727.457 4731.13 702.636 4731.19 673.297C4731.2 671.207 4731.21 669.116 4731.22 667.026C4731.24 660.195 4731.26 653.365 4731.27 646.535C4731.28 644.176 4731.28 641.816 4731.29 639.457C4731.31 629.642 4731.33 619.827 4731.34 610.012C4731.36 595.981 4731.39 581.95 4731.45 567.919C4731.49 558.031 4731.51 548.143 4731.51 538.255C4731.51 532.358 4731.53 526.461 4731.56 520.564C4731.59 515.018 4731.6 509.472 4731.58 503.926C4731.58 501.898 4731.59 499.869 4731.61 497.841C4731.79 480.854 4731.79 480.854 4724.33 465.878C4712.64 456.458 4688.38 458.865 4678 458C4678 431.6 4678 405.2 4678 378C4733.77 378 4789.54 378 4847 378C4848.16 434.702 4848.16 434.702 4848.14 458.769C4848.14 463.596 4848.15 468.424 4848.15 473.252C4848.16 480.253 4848.17 487.254 4848.17 494.256C4848.17 505.335 4848.19 516.415 4848.21 527.495C4848.21 529.399 4848.22 531.303 4848.22 533.207C4848.22 536.087 4848.23 538.967 4848.23 541.847C4848.25 552.589 4848.27 563.332 4848.28 574.074C4848.29 575.54 4848.29 575.54 4848.29 577.036C4848.31 592.981 4848.32 608.927 4848.33 624.872C4848.34 641.346 4848.36 657.82 4848.4 674.294C4848.42 684.407 4848.43 694.521 4848.42 704.634C4848.42 711.539 4848.43 718.443 4848.45 725.347C4848.46 729.322 4848.47 733.297 4848.46 737.273C4848.45 740.916 4848.46 744.558 4848.48 748.201C4848.49 750.13 4848.48 752.059 4848.46 753.988C4848.53 761.469 4849.3 768.358 4853 775C4864.14 784.914 4896.24 783.227 4905 784C4905 809.41 4905 834.82 4905 861C4853.52 861 4802.04 861 4749 861C4748.15 857.617 4747.85 855.112 4747.79 851.681C4747.77 850.62 4747.75 849.559 4747.73 848.466C4747.71 846.758 4747.71 846.758 4747.68 845.016C4747.66 843.845 4747.64 842.674 4747.62 841.468C4747.56 837.729 4747.5 833.989 4747.44 830.25C4747.39 827.715 4747.35 825.18 4747.31 822.645C4747.2 816.43 4747.1 810.215 4747 804C4746.63 804.424 4746.27 804.849 4745.89 805.286C4744.21 807.239 4742.52 809.19 4740.84 811.141C4740.27 811.808 4739.69 812.475 4739.1 813.163C4726.28 827.99 4711.83 839.999 4695 850C4694.43 850.341 4693.85 850.683 4693.26 851.034C4675.52 861.437 4656.24 867.65 4636 871C4635.25 871.125 4634.5 871.251 4633.73 871.38C4620.18 873.588 4606.92 874.478 4593.19 874.391C4590.17 874.375 4587.15 874.391 4584.13 874.41C4568.92 874.427 4554.64 872.842 4540.06 868.312C4539.24 868.058 4538.41 867.804 4537.56 867.542C4505.15 857.225 4479.19 837.181 4463.31 806.853C4446.79 774.043 4443.86 739.81 4443.84 703.668C4443.84 701.249 4443.83 698.829 4443.83 696.41C4443.82 691.23 4443.81 686.05 4443.8 680.871C4443.79 672.675 4443.77 664.48 4443.75 656.285C4443.74 653.472 4443.73 650.659 4443.73 647.845C4443.72 646.791 4443.72 646.791 4443.72 645.716C4443.7 637.748 4443.68 629.78 4443.66 621.812C4443.66 621.085 4443.66 620.358 4443.66 619.609C4443.63 607.806 4443.61 596.003 4443.6 584.199C4443.58 572.047 4443.55 559.894 4443.51 547.741C4443.49 540.931 4443.47 534.122 4443.47 527.312C4443.47 520.914 4443.45 514.517 4443.43 508.12C4443.42 505.776 4443.42 503.432 4443.42 501.088C4443.43 497.883 4443.41 494.678 4443.39 491.472C4443.4 490.551 4443.4 489.63 4443.41 488.681C4443.32 480.148 4441.67 471.645 4436 465C4422.98 457.526 4403.61 459.047 4390 458C4390 431.6 4390 405.2 4390 378Z" fill="white"/>
<path d="M6268.94 362.687C6270 362.689 6271.06 362.691 6272.15 362.693C6290.27 362.745 6308.03 363.561 6326 366C6327.27 366.172 6328.55 366.343 6329.86 366.52C6363.85 371.255 6397.27 379.659 6429.6 391.15C6431.32 391.758 6433.05 392.333 6434.79 392.885C6435.7 393.198 6436.6 393.51 6437.54 393.832C6438.37 394.104 6439.2 394.375 6440.05 394.655C6442 396 6442 396 6442.61 398.685C6443 401.952 6443.13 405.089 6443.13 408.377C6443.13 409.646 6443.13 410.916 6443.13 412.224C6443.13 413.625 6443.13 415.027 6443.13 416.428C6443.13 417.923 6443.13 419.418 6443.13 420.912C6443.13 424.16 6443.13 427.407 6443.13 430.654C6443.13 435.939 6443.13 441.223 6443.13 446.507C6443.14 453.185 6443.14 459.863 6443.14 466.541C6443.14 479.666 6443.15 492.791 6443.17 505.916C6443.17 507.983 6443.17 510.05 6443.18 512.117C6443.18 515.25 6443.18 518.382 6443.19 521.515C6443.2 533.323 6443.22 545.131 6443.23 556.939C6443.23 558.558 6443.23 558.558 6443.23 560.209C6443.25 577.697 6443.25 595.184 6443.25 612.671C6443.25 630.631 6443.27 648.59 6443.3 666.55C6443.32 677.624 6443.33 688.698 6443.31 699.773C6443.31 707.365 6443.32 714.956 6443.34 722.548C6443.35 726.926 6443.36 731.304 6443.34 735.682C6443.33 739.695 6443.33 743.707 6443.36 747.72C6443.37 749.167 6443.36 750.614 6443.35 752.061C6443.28 760.765 6443.81 768.69 6449 776C6460.39 783.757 6479.97 782.043 6493.36 782.754C6496 783 6496 783 6497 784C6497 809.41 6497 834.82 6497 861C6446.18 861 6395.36 861 6343 861C6343 807 6343 807 6344 805C6342.68 805 6341.36 805 6340 805C6339.93 805.705 6339.86 806.41 6339.79 807.137C6338.79 810.762 6336.87 813.051 6334.44 815.812C6333.96 816.368 6333.47 816.923 6332.98 817.496C6309.28 844.361 6282.01 863.259 6246.69 871.25C6245.97 871.413 6245.26 871.576 6244.52 871.744C6233.75 874.063 6222.98 874.207 6212 874.187C6211.25 874.186 6210.51 874.185 6209.74 874.184C6157.84 874.016 6112.12 861.184 6074.36 824.426C6054.75 803.746 6042.6 778.545 6033 752C6032.71 751.218 6032.42 750.437 6032.12 749.632C6027.33 736.722 6024.47 723.528 6022 710C6021.85 709.157 6021.69 708.315 6021.53 707.447C6008.68 636.2 6014.94 552.41 6047 487C6047.45 486.068 6047.91 485.135 6048.38 484.175C6054.87 470.962 6061.95 458.629 6071 447C6071.44 446.437 6071.87 445.874 6072.32 445.294C6106.36 401.955 6155.09 377.519 6208.44 367.25C6209.95 366.952 6209.95 366.952 6211.5 366.648C6230.46 363.191 6249.71 362.618 6268.94 362.687ZM6185 470C6185 470.66 6185 471.32 6185 472C6184.4 472.262 6183.8 472.523 6183.19 472.793C6180.87 474.07 6179.66 475.276 6178 477.312C6177.49 477.934 6176.98 478.555 6176.45 479.195C6175.97 479.791 6175.49 480.386 6175 481C6174.28 481.887 6173.56 482.774 6172.81 483.687C6172.22 484.451 6171.62 485.214 6171 486C6170.44 486.701 6169.89 487.402 6169.31 488.125C6167.82 490.07 6167.82 490.07 6167 493C6166.34 493.66 6165.68 494.32 6165 495C6162.92 497.826 6162.92 497.826 6162.11 500.715C6161.07 503.79 6159.78 506.602 6158.34 509.502C6146.78 532.78 6141.03 558.292 6137.69 583.937C6137.53 585.155 6137.37 586.373 6137.21 587.628C6135.1 604.952 6134.79 622.318 6134.81 639.75C6134.81 640.715 6134.81 641.679 6134.82 642.673C6134.87 677.462 6138.27 712.472 6154 744C6154.35 744.703 6154.69 745.406 6155.05 746.13C6165.4 766.861 6181.31 781.274 6203.29 789.184C6230.05 797.902 6260.44 795.599 6285.79 783.219C6305.58 772.867 6320.46 756.016 6328 735C6331.74 723.008 6333.15 711.059 6333.15 698.53C6333.15 697.512 6333.16 696.494 6333.16 695.446C6333.17 692.056 6333.17 688.666 6333.18 685.276C6333.18 682.838 6333.19 680.4 6333.2 677.962C6333.22 670.667 6333.23 663.372 6333.24 656.077C6333.24 652.638 6333.25 649.199 6333.25 645.761C6333.27 634.328 6333.28 622.895 6333.29 611.462C6333.29 608.503 6333.29 605.543 6333.3 602.584C6333.3 601.848 6333.3 601.113 6333.3 600.355C6333.31 588.414 6333.33 576.474 6333.36 564.534C6333.4 552.266 6333.41 539.998 6333.42 527.73C6333.42 520.846 6333.43 513.961 6333.45 507.076C6333.48 500.609 6333.48 494.142 6333.47 487.675C6333.47 485.298 6333.48 482.922 6333.49 480.545C6333.51 477.308 6333.5 474.072 6333.49 470.835C6333.5 469.888 6333.51 468.941 6333.52 467.965C6333.52 462.879 6333.52 462.879 6331.19 458.483C6328.13 456.408 6324.91 455.169 6321.44 454C6320.69 453.745 6319.94 453.49 6319.17 453.227C6277.71 439.578 6219.08 438.464 6185 470Z" fill="white"/>
<path d="M3767 363C3768.19 363.129 3768.19 363.129 3769.4 363.26C3788.92 365.548 3808.67 371.754 3826 381C3826.64 381.331 3827.28 381.662 3827.94 382.002C3857.38 397.252 3878.32 420.295 3889.28 451.656C3900.88 489.837 3897.46 532.742 3879.19 568.312C3873.29 579.288 3866.09 589.533 3858 599C3857.29 599.83 3856.58 600.66 3855.86 601.516C3812.92 650.539 3735.94 666.171 3673.8 670.629C3656.52 671.77 3639.31 672.157 3622 672C3625.66 704.114 3634.38 738.548 3660.52 760.25C3693.14 783.263 3733.64 785.966 3772.07 779.543C3801.49 774.093 3832.19 762.492 3855.25 742.969C3857 742 3857 742 3858.95 742.191C3861.67 743.265 3862.16 744.393 3863.49 746.969C3863.94 747.834 3864.39 748.698 3864.86 749.59C3865.34 750.55 3865.82 751.51 3866.31 752.5C3866.83 753.502 3867.34 754.505 3867.87 755.537C3873.08 765.884 3877.86 776.439 3882.57 787.023C3883.17 788.358 3883.76 789.693 3884.36 791.027C3884.79 792.005 3884.79 792.005 3885.24 793.003C3886.81 796.504 3888.46 799.944 3890.23 803.352C3890.6 804.068 3890.97 804.784 3891.35 805.522C3892.07 806.887 3892.79 808.248 3893.52 809.601C3895.6 813.567 3896.58 816.528 3896 821C3890.51 828.341 3882.75 834.22 3875 839C3873.36 840.027 3873.36 840.027 3871.7 841.074C3808.72 879.209 3718.49 883.117 3648.51 865.932C3633.38 861.912 3618.57 856.617 3604.85 849.022C3602.89 847.94 3600.91 846.896 3598.93 845.852C3585.88 838.865 3574.77 830.168 3564 820C3563.21 819.278 3562.43 818.556 3561.62 817.812C3549.54 806.321 3540.07 792.512 3532 778C3531.63 777.346 3531.26 776.692 3530.88 776.018C3506.32 732.527 3499.78 683.112 3499.75 633.875C3499.75 632.822 3499.75 631.769 3499.75 630.684C3499.82 555.44 3520.65 481.77 3573.59 426.476C3574.9 425.109 3576.19 423.731 3577.49 422.351C3625.97 372.049 3699.65 355.674 3767 363ZM3660 472C3659.04 472.992 3659.04 472.992 3658.05 474.004C3630.13 503.586 3617.68 544.733 3616.05 584.547C3616.02 585.38 3615.98 586.214 3615.95 587.073C3615.78 589.008 3615.78 589.008 3617 590C3619.64 590.114 3622.25 590.164 3624.89 590.168C3625.7 590.172 3626.51 590.176 3627.34 590.181C3629.98 590.191 3632.61 590.191 3635.25 590.187C3636.15 590.186 3637.04 590.186 3637.96 590.185C3669.62 590.112 3701.95 586.492 3731 573C3731.6 572.723 3732.2 572.446 3732.82 572.161C3757.23 560.817 3777.77 545.803 3788 520C3793.05 503.044 3788.87 481.38 3780.91 466.086C3773.52 454.173 3761.21 448.485 3748 445C3717.54 438.008 3681.19 449.216 3660 472Z" fill="white"/>
<path d="M2415 400C2415.51 400.529 2416.03 401.057 2416.55 401.602C2418.06 403.26 2418.06 403.26 2421 404C2422.54 405.566 2422.54 405.566 2424.19 407.562C2426.6 410.427 2429.06 413.025 2431.81 415.562C2436.72 420.355 2440.22 426.061 2443.9 431.805C2445.81 434.943 2445.81 434.943 2448 437C2448.7 438.465 2449.34 439.958 2449.95 441.465C2450.3 442.347 2450.65 443.229 2451.02 444.139C2451.57 445.524 2451.57 445.524 2452.13 446.937C2452.5 447.857 2452.87 448.777 2453.25 449.724C2453.78 451.05 2453.78 451.05 2454.32 452.402C2454.64 453.212 2454.97 454.021 2455.3 454.855C2456 457 2456 457 2456 460C2456.66 460.33 2457.32 460.66 2458 461C2458.7 463.775 2459.05 466.56 2459.46 469.392C2459.79 471.608 2460.14 473.822 2460.53 476.029C2462.24 486.34 2462.23 496.451 2462.13 506.875C2462.11 508.642 2462.11 510.409 2462.1 512.176C2462.08 516.451 2462.04 520.725 2462 525C2461.34 525 2460.68 525 2460 525C2460.33 527.31 2460.66 529.62 2461 532C2460.34 532 2459.68 532 2459 532C2458.89 533.292 2458.77 534.583 2458.66 535.914C2458.09 540.91 2456.95 545.569 2455.5 550.375C2455.24 551.229 2454.99 552.083 2454.72 552.963C2451.75 562.417 2447.49 571.188 2443 580C2440.94 584.109 2440.94 584.109 2438.94 588.25C2438 590 2438 590 2436 592C2433.26 595.142 2430.56 598.298 2427.96 601.555C2419.65 611.94 2410.95 620.429 2400 628C2399.28 628.568 2398.55 629.137 2397.8 629.723C2396 631 2396 631 2394 631C2394 631.66 2394 632.32 2394 633C2391.69 633.66 2389.38 634.32 2387 635C2387 635.66 2387 636.32 2387 637C2346.29 657.212 2305.85 668.236 2261 674C2259.69 674.169 2258.39 674.339 2257.04 674.514C2234.35 677.358 2211.82 677.332 2189 677C2190.35 690.014 2190.35 690.014 2192.69 702.875C2192.85 703.603 2193.02 704.33 2193.19 705.08C2196.21 717.679 2200.64 734.639 2210 744C2210.62 745.114 2211.24 746.227 2211.88 747.375C2213.57 750.427 2215.48 752.562 2218 755C2218.52 755.887 2219.03 756.774 2219.56 757.687C2230.41 774.313 2254.21 781.825 2272.48 786.101C2323.12 796.458 2375.85 779.388 2418.25 752.25C2418.9 751.819 2419.55 751.389 2420.22 750.945C2424.7 748 2424.7 748 2428 748C2429.34 750.622 2430.67 753.248 2432 755.875C2432.38 756.621 2432.76 757.368 2433.16 758.137C2433.52 758.852 2433.88 759.567 2434.25 760.305C2434.59 760.964 2434.92 761.624 2435.27 762.304C2436 764 2436 764 2436 766C2436.66 766.33 2437.32 766.66 2438 767C2438.7 768.99 2439.36 770.992 2440 773C2441.05 775.302 2442.14 777.588 2443.26 779.859C2443.72 780.805 2443.72 780.805 2444.19 781.77C2445.5 784.445 2446.81 787.117 2448.13 789.788C2449.09 791.748 2450.05 793.71 2451.01 795.672C2451.58 796.838 2452.16 798.004 2452.75 799.206C2454 802 2454 802 2454 804C2454.66 804.33 2455.32 804.66 2456 805C2456.67 807 2457.33 809 2458 811C2458.86 812.674 2459.74 814.34 2460.63 816C2462.57 819.852 2463.92 822.621 2463 827C2460.11 831.503 2456.21 834.381 2451.94 837.512C2451.22 838.044 2450.49 838.576 2449.75 839.125C2449.06 839.622 2448.38 840.12 2447.67 840.633C2445.87 841.914 2445.87 841.914 2445 844C2444.01 844 2443.02 844 2442 844C2442 844.66 2442 845.32 2442 846C2440.35 846.33 2438.7 846.66 2437 847C2437 847.66 2437 848.32 2437 849C2431.81 851.689 2426.68 854.266 2421.16 856.21C2418.91 857.034 2416.69 857.934 2414.47 858.848C2380.84 872.33 2343.65 880.13 2307.4 880.168C2305.67 880.173 2305.67 880.173 2303.9 880.178C2301.47 880.183 2299.05 880.185 2296.62 880.185C2292.97 880.187 2289.32 880.206 2285.67 880.224C2267.8 880.269 2250.29 879.483 2232.75 875.812C2231.19 875.49 2231.19 875.49 2229.6 875.161C2180.12 864.574 2135.3 840.168 2107.29 796.999C2106.86 796.34 2106.44 795.68 2106 795C2105.6 794.388 2105.2 793.776 2104.79 793.145C2062.12 727.261 2058.39 634.956 2074 560C2082.42 522.189 2098.05 485.589 2122 455C2122.76 453.979 2123.51 452.958 2124.29 451.906C2158.02 406.385 2208.23 378.82 2263.91 370.141C2316.73 362.417 2370.75 367.936 2415 400ZM2232.17 474.484C2205.17 505.76 2191.18 547.952 2191 589C2193.87 591.87 2203.55 590.247 2207.75 590.25C2208.93 590.251 2208.93 590.251 2210.14 590.252C2255 590.191 2304.58 582.865 2340 553C2340.64 552.516 2341.29 552.033 2341.95 551.535C2355.82 540.784 2362.81 523.935 2365 507C2366.46 491.153 2362.48 474.838 2353 462C2352.41 461.193 2351.81 460.386 2351.2 459.555C2342.69 449.683 2327.34 446.187 2315 444C2283.34 441.813 2254.39 451.294 2232.17 474.484Z" fill="white"/>
<path d="M4329.19 374.625C4330.18 374.902 4331.18 375.179 4332.21 375.464C4338.26 377.226 4343.59 378.944 4347.63 384.071C4349.52 388.109 4349.4 391.571 4349.36 395.973C4349.36 396.87 4349.36 397.768 4349.36 398.692C4349.37 401.673 4349.35 404.653 4349.33 407.633C4349.33 409.742 4349.32 411.852 4349.32 413.961C4349.32 418.412 4349.3 422.862 4349.28 427.313C4349.25 432.878 4349.24 438.443 4349.24 444.008C4349.21 472.35 4348.8 500.669 4348 529C4336.73 530.241 4325.47 531.345 4314.15 532.07C4312.85 532.156 4311.55 532.242 4310.2 532.331C4307.49 532.51 4304.77 532.686 4302.05 532.86C4298.6 533.081 4295.15 533.309 4291.7 533.539C4288.35 533.761 4285 533.978 4281.65 534.195C4279.82 534.317 4279.82 534.317 4277.95 534.442C4271.29 534.865 4264.67 535.111 4258 535C4257.31 527.061 4256.91 519.165 4256.79 511.199C4256.77 510.345 4256.76 509.491 4256.75 508.611C4256.69 505.074 4256.63 501.537 4256.6 498C4256.57 495.378 4256.53 492.758 4256.48 490.137C4256.47 488.96 4256.47 488.96 4256.47 487.759C4256.34 482.053 4255.02 477.316 4253 472C4252.67 471.01 4252.34 470.02 4252 469C4249.93 467.867 4249.93 467.867 4247 467C4246.34 466.756 4245.69 466.513 4245.01 466.262C4237.62 463.724 4230.64 463.497 4222.88 463.563C4221.59 463.572 4220.3 463.582 4218.97 463.592C4196.11 464.018 4176.97 472.658 4161 489C4140.74 511.222 4137.7 540.459 4137.7 569.191C4137.69 571.167 4137.68 573.144 4137.67 575.12C4137.65 579.347 4137.64 583.574 4137.63 587.801C4137.62 594.514 4137.6 601.227 4137.57 607.941C4137.53 618.585 4137.5 629.229 4137.47 639.873C4137.42 658.87 4137.35 677.867 4137.28 696.865C4137.26 703.508 4137.24 710.151 4137.22 716.794C4137.17 738.549 4137.05 760.267 4136 782C4137.17 781.995 4138.34 781.989 4139.55 781.984C4174.83 781.824 4174.83 781.823 4192.19 782.438C4193.3 782.477 4194.42 782.516 4195.57 782.556C4217.42 783.419 4217.42 783.419 4219 785C4219 810.08 4219 835.16 4219 861C4134.19 861 4049.38 861 3962 861C3962 836.58 3962 812.16 3962 787C3979.82 785.02 3979.82 785.02 3998 783C4007.46 780.485 4007.46 780.485 4015 775C4017.97 769.456 4019.12 764.224 4019.13 757.983C4019.14 756.991 4019.14 755.999 4019.15 754.977C4019.15 753.895 4019.15 752.813 4019.15 751.698C4019.15 750.542 4019.15 749.387 4019.16 748.196C4019.17 744.993 4019.17 741.789 4019.17 738.585C4019.18 735.129 4019.19 731.672 4019.2 728.215C4019.22 719.868 4019.23 711.522 4019.24 703.175C4019.24 699.241 4019.25 695.307 4019.25 691.373C4019.27 678.29 4019.28 665.207 4019.29 652.124C4019.29 648.731 4019.29 645.338 4019.3 641.944C4019.3 640.679 4019.3 640.679 4019.3 639.389C4019.3 625.733 4019.33 612.078 4019.36 598.423C4019.4 584.392 4019.41 570.362 4019.42 556.331C4019.42 548.458 4019.43 540.585 4019.45 532.712C4019.48 526.005 4019.48 519.299 4019.47 512.592C4019.47 509.174 4019.47 505.756 4019.49 502.338C4019.51 498.622 4019.5 494.907 4019.49 491.191C4019.5 490.125 4019.51 489.058 4019.52 487.959C4019.45 479.777 4018.43 470.517 4012.5 464.438C4001 459.713 3989.07 459.163 3976.81 458.375C3974.12 458.195 3971.43 458.012 3968.74 457.824C3967.08 457.709 3965.41 457.599 3963.75 457.494C3958.11 457.111 3958.11 457.111 3957 456C3957 430.26 3957 404.52 3957 378C4010.46 378 4063.92 378 4119 378C4119.9 381.603 4120.15 384.375 4120.21 388.054C4120.23 389.275 4120.25 390.496 4120.27 391.754C4120.29 393.724 4120.29 393.724 4120.32 395.734C4120.34 397.096 4120.36 398.458 4120.38 399.82C4120.43 403.397 4120.48 406.975 4120.53 410.552C4120.58 414.205 4120.64 417.859 4120.69 421.512C4120.8 428.674 4120.9 435.837 4121 443C4121.53 442.133 4122.05 441.267 4122.59 440.374C4123.3 439.211 4124.01 438.049 4124.72 436.887C4125.07 436.319 4125.41 435.75 4125.77 435.165C4131.81 425.284 4139.05 416.41 4147 408C4147.75 407.189 4148.49 406.378 4149.26 405.543C4197.08 355.357 4267.45 357.17 4329.19 374.625Z" fill="white"/>
<path d="M2673.94 274.867C2674.65 274.866 2675.36 274.865 2676.1 274.864C2677.62 274.864 2679.15 274.865 2680.68 274.87C2682.91 274.875 2685.14 274.87 2687.37 274.863C2700.95 274.875 2714.4 275.477 2728 276C2728 309.66 2728 343.32 2728 378C2770.24 378 2812.48 378 2856 378C2856 383.702 2855.93 388.813 2855.31 394.4C2855.24 395.079 2855.17 395.758 2855.09 396.458C2854.85 398.668 2854.6 400.877 2854.36 403.086C2854.18 404.635 2854.01 406.185 2853.84 407.734C2853.48 410.964 2853.11 414.193 2852.75 417.421C2852.28 421.559 2851.82 425.699 2851.38 429.839C2851.03 433.032 2850.67 436.222 2850.3 439.413C2850.13 440.94 2849.96 442.467 2849.8 443.994C2849.57 446.123 2849.32 448.25 2849.07 450.376C2848.94 451.586 2848.8 452.796 2848.66 454.042C2848 457 2848 457 2846.89 458.892C2843.95 460.614 2840.99 460.4 2837.69 460.356C2836.94 460.358 2836.2 460.361 2835.43 460.363C2832.96 460.366 2830.48 460.347 2828 460.328C2826.25 460.325 2824.5 460.323 2822.75 460.322C2819.05 460.318 2815.36 460.303 2811.66 460.281C2807.04 460.254 2802.41 460.242 2797.79 460.237C2774.51 460.211 2751.27 459.773 2728 459C2728.03 459.682 2728.06 460.364 2728.09 461.067C2729.14 486.769 2729.16 512.466 2729.2 538.187C2729.21 546.028 2729.23 553.868 2729.25 561.709C2729.26 564.413 2729.27 567.117 2729.27 569.821C2729.28 570.496 2729.28 571.171 2729.28 571.866C2729.3 579.478 2729.32 587.09 2729.34 594.702C2729.34 595.395 2729.34 596.087 2729.34 596.801C2729.37 608.076 2729.39 619.351 2729.4 630.627C2729.42 642.281 2729.45 653.936 2729.49 665.591C2729.51 672.104 2729.53 678.617 2729.53 685.13C2729.53 691.24 2729.55 697.349 2729.57 703.459C2729.58 705.689 2729.58 707.92 2729.58 710.15C2729.56 727.704 2730.86 742.173 2738.88 758.125C2739.39 759.208 2739.91 760.291 2740.44 761.406C2746.03 772.804 2752.97 777.898 2764.95 782.012C2795.25 790.665 2824.41 782.602 2851.35 768.25C2854 767 2854 767 2857 767C2863.81 782.229 2869.82 797.733 2875.77 813.315C2876.08 814.136 2876.4 814.957 2876.72 815.803C2877.33 817.402 2877.94 819.002 2878.54 820.603C2880.38 825.443 2882.3 830.24 2884.38 834.986C2885.14 837.445 2885.23 839.44 2885 842C2880.78 846.507 2874.55 849.07 2869.12 851.875C2868.09 852.409 2867.06 852.944 2865.99 853.495C2833.23 870.224 2799.22 875.14 2762.81 875.25C2761.93 875.255 2761.04 875.26 2760.13 875.266C2744.36 875.338 2728.61 874.509 2713.12 871.312C2712.31 871.146 2711.5 870.979 2710.66 870.808C2683.01 864.806 2652.06 852.206 2634.72 828.691C2623.46 811.054 2618.61 791.388 2615 771C2614.82 770 2614.65 769 2614.46 767.97C2612.59 755.89 2612.73 743.863 2612.76 731.663C2612.76 729.228 2612.75 726.793 2612.75 724.358C2612.75 718.457 2612.75 712.555 2612.76 706.653C2612.77 699.733 2612.77 692.813 2612.77 685.893C2612.77 673.499 2612.78 661.104 2612.79 648.71C2612.81 636.787 2612.82 624.864 2612.81 612.94C2612.81 611.845 2612.81 611.845 2612.81 610.727C2612.81 609.998 2612.81 609.268 2612.81 608.517C2612.81 594.829 2612.82 581.142 2612.83 567.454C2612.83 563.348 2612.83 559.242 2612.83 555.136C2612.84 523.071 2613.12 491.054 2614 459C2591.56 459 2569.12 459 2546 459C2546 447.75 2546 447.75 2546.63 443.111C2546.76 442.073 2546.9 441.035 2547.04 439.966C2547.27 438.337 2547.27 438.337 2547.5 436.676C2547.65 435.53 2547.8 434.385 2547.96 433.204C2548.45 429.573 2548.94 425.943 2549.44 422.312C2549.77 419.864 2550.1 417.415 2550.42 414.967C2552.76 397.572 2552.76 397.572 2554 389C2557.9 387.836 2561.78 386.8 2565.75 385.922C2593.55 379.76 2615.8 368.529 2631.58 344.039C2634.49 339.421 2637.27 334.729 2640 330C2640.42 329.272 2640.84 328.544 2641.27 327.794C2649.06 314.111 2654.9 299.638 2660.72 285.042C2665.01 274.875 2665.01 274.875 2673.94 274.867Z" fill="white"/>
<path d="M6558 378C6614.76 378 6671.52 378 6730 378C6730 511.32 6730 644.64 6730 782C6742.54 782 6755.08 782 6768 782C6783 783 6783 783 6784 784C6784 809.41 6784 834.82 6784 861C6708.76 861 6633.52 861 6556 861C6556 836.58 6556 812.16 6556 787C6565.9 786.01 6575.8 785.02 6586 784C6595.61 781.597 6603.49 779.497 6610 772C6613.06 764.542 6613.43 756.964 6613.39 749.007C6613.39 747.85 6613.4 746.693 6613.4 745.501C6613.42 741.649 6613.41 737.798 6613.4 733.947C6613.41 731.175 6613.42 728.403 6613.42 725.632C6613.44 718.9 6613.44 712.169 6613.44 705.438C6613.43 699.964 6613.44 694.491 6613.44 689.017C6613.44 687.846 6613.44 687.846 6613.44 686.651C6613.44 685.065 6613.45 683.478 6613.45 681.892C6613.46 667.037 6613.46 652.182 6613.44 637.327C6613.43 623.752 6613.45 610.177 6613.47 596.602C6613.5 582.643 6613.51 568.683 6613.5 554.724C6613.49 546.895 6613.5 539.066 6613.51 531.237C6613.53 524.574 6613.53 517.911 6613.51 511.248C6613.5 507.852 6613.5 504.456 6613.52 501.06C6613.53 497.371 6613.52 493.682 6613.5 489.993C6613.51 488.931 6613.52 487.869 6613.53 486.776C6613.46 479.664 6612.28 473.38 6609 467C6604.57 463.12 6600.52 462.018 6594.78 461.611C6593.95 461.55 6593.12 461.49 6592.26 461.427C6591.4 461.367 6590.53 461.308 6589.64 461.246C6588.84 461.188 6588.04 461.13 6587.21 461.07C6584.22 460.856 6581.24 460.647 6578.25 460.438C6571.57 459.963 6564.89 459.489 6558 459C6558 432.27 6558 405.54 6558 378Z" fill="white"/>
<path d="M6707.84 186.168C6710.35 188.351 6712.68 190.622 6715 193C6716.15 194.104 6716.15 194.104 6717.33 195.231C6730.78 208.89 6736.26 227.437 6736.25 246.233C6735.96 265.579 6729 281.544 6715.88 295.625C6699.43 311.363 6678.94 316.735 6656.68 316.305C6636.63 315.487 6617.86 307.71 6604 293C6589.3 276.079 6587.06 256.491 6588 235C6589.39 217.092 6598.17 201.323 6611 189C6638.04 166.586 6679.7 164.714 6707.84 186.168Z" fill="white"/>
<path d="M5947 748C5950.63 750.747 5953.83 753.741 5957 757C5958.17 758.141 5958.17 758.141 5959.37 759.305C5970.78 771.022 5976.32 785.967 5976.42 802.233C5976.4 803.27 5976.39 804.307 5976.38 805.375C5976.36 807.018 5976.36 807.018 5976.34 808.695C5975.96 827.301 5970.21 844.426 5957 858C5942.29 872.065 5924.83 876.503 5905.01 876.286C5883.77 875.725 5865.15 870.553 5850 855C5837.06 840.93 5833.15 820.592 5833.87 802.056C5834.9 785.895 5840.63 771.494 5851 759C5851.53 758.356 5852.06 757.711 5852.61 757.047C5875.69 731.678 5919.25 730.772 5947 748Z" fill="white"/>
<g clip-path="url(#clip0_2460_509)">
<mask id="mask0_2460_509" style="mask-type:luminance" maskUnits="userSpaceOnUse" x="2" y="151" width="1135" height="1071">
<path d="M607.246 266.175C735.862 268.987 863.991 286.036 988.868 316.998L998.105 319.292L995.467 328.437C964.404 436.247 922.929 540.95 871.764 640.797L867.367 649.372L801.743 611.487L805.699 603.734C843.333 529.983 875.455 453.45 901.731 374.931C782.883 350.757 661.542 339.616 540.273 341.708L530.944 341.868V227.131C382.675 230.3 235.116 251.982 92.2147 291.649C125.269 419.584 172.55 543.636 232.996 661.136L236.991 668.904L171.352 706.808L166.941 698.267C93.4128 555.858 38.5178 404.27 3.85035 247.788L2.02905 239.585L10.0437 237.059C200.106 177.101 398.956 148.124 598.221 151.245L607.246 151.385V266.175ZM810.526 750.418C743.78 860.396 664.952 962.833 575.699 1055.5L569.095 1062.35L562.491 1055.5C484.658 974.689 414.724 886.416 353.829 792.187L348.597 784.09L414.227 746.201L418.966 753.5C464.02 822.97 514.239 889.054 569.095 951.07C649.454 860.232 719.775 760.718 778.593 654.648L783.119 646.493L882.489 703.861C953.881 573.868 1008.88 435.242 1045.98 291.649C918.659 256.305 787.583 235.232 655.595 228.827L646.87 228.401V152.607L656.469 153.057C816.569 160.588 975.293 188.84 1128.15 237.054L1136.16 239.58L1134.34 247.783C1091.23 442.368 1016.9 629.063 914.567 800.066L909.934 807.815L810.526 750.418ZM236.459 374.931C274.953 489.944 325.974 600.598 388.419 704.572L393.221 712.567L293.857 769.935C370.738 896.759 463.286 1013.71 569.095 1117.63C663.363 1025.04 747.147 922.064 818.69 810.965L823.415 803.622L889.064 841.522L883.875 849.614C797.303 984.496 693.47 1107.83 575.288 1216.09L569.095 1221.77L562.902 1216.09C415.947 1081.46 291.427 923.75 194.497 749.621L190.106 741.737L289.519 684.339C227.648 571.549 178.342 452.063 142.718 328.437L140.085 319.292L149.322 316.998C258.223 289.997 369.636 273.567 481.687 267.953L491.315 267.47V343.24L482.624 343.694C399.937 347.984 317.597 358.428 236.459 374.931ZM299.19 402.985C477.74 373.004 660.45 373.004 839 402.985L849.956 404.826L846.072 415.232C782.762 584.854 691.407 743.08 576.168 882.721L569.095 891.286L562.022 882.721C446.788 743.08 355.433 584.854 292.123 415.232L288.234 404.826L299.19 402.985ZM394.279 466.049C440.957 573.168 499.664 674.851 569.095 768.834C638.527 674.851 697.233 573.168 743.911 466.049C627.802 452.909 510.388 452.909 394.279 466.049Z" fill="white"/>
</mask>
<g mask="url(#mask0_2460_509)">
<path fill-rule="evenodd" clip-rule="evenodd" d="M1136.16 148.119V1221.77H2.02905V148.119H1136.16Z" fill="url(#paint0_linear_2460_509)"/>
</g>
<mask id="mask1_2460_509" style="mask-type:luminance" maskUnits="userSpaceOnUse" x="0" y="0" width="1138" height="1115">
<path d="M408.207 1114.87C172.419 1045.45 0.285034 827.434 0.285034 569.172C0.285034 523.707 5.65714 479.508 15.7298 437.126C33.6336 491.692 54.0061 545.452 76.7843 598.178C86.1034 758.78 172.26 898.745 299.05 981.877C333.404 1027.83 369.825 1072.2 408.207 1114.87ZM1122.46 437.087C1132.54 479.475 1137.9 523.698 1137.9 569.172C1137.9 827.424 965.78 1045.44 730.007 1114.86C768.399 1072.2 804.849 1027.8 839.217 981.829C965.998 898.663 1052.14 758.664 1061.42 598.033C1084.17 545.341 1104.55 491.629 1122.46 437.087ZM569.095 0.362305C718.485 0.362305 854.391 57.9868 955.886 152.173C898.503 140.225 840.57 130.935 782.317 124.346C717.784 93.3548 645.469 75.992 569.095 75.992C492.663 75.992 420.294 93.3789 355.723 124.418C297.514 131.008 239.614 140.279 182.255 152.211C283.75 57.9916 419.686 0.362305 569.095 0.362305Z" fill="white"/>
</mask>
<g mask="url(#mask1_2460_509)">
<path fill-rule="evenodd" clip-rule="evenodd" d="M1137.9 0.386475V1114.86H0.289917V0.386475H1137.9Z" fill="url(#paint1_linear_2460_509)"/>
</g>
<mask id="mask2_2460_509" style="mask-type:luminance" maskUnits="userSpaceOnUse" x="497" y="493" width="142" height="142">
<path d="M568.279 493.576C575.738 493.576 582.926 494.736 589.675 496.881C580.83 501.577 574.8 510.872 574.8 521.577C574.8 537.007 587.308 549.515 602.738 549.515C615.511 549.515 626.285 540.935 629.613 529.225C635.483 539.519 638.845 551.442 638.845 564.143C638.845 603.115 607.25 634.71 568.279 634.71C529.312 634.71 497.712 603.115 497.712 564.143C497.712 525.171 529.312 493.576 568.279 493.576Z" fill="white"/>
</mask>
<g mask="url(#mask2_2460_509)">
<path fill-rule="evenodd" clip-rule="evenodd" d="M638.855 493.586V634.701H497.692V493.586H638.855Z" fill="url(#paint2_linear_2460_509)"/>
</g>
<mask id="mask3_2460_509" style="mask-type:luminance" maskUnits="userSpaceOnUse" x="503" y="499" width="130" height="130">
<path d="M629.251 542.698C622.956 550.582 613.284 555.462 602.738 555.462C584.023 555.462 568.849 540.292 568.849 521.582C568.849 513.577 571.66 506.011 576.564 500.055C573.816 499.704 571.055 499.528 568.279 499.528C532.597 499.528 503.659 528.461 503.659 564.143C503.659 599.83 532.597 628.763 568.279 628.763C603.965 628.763 632.898 599.83 632.898 564.143C632.898 556.79 631.662 549.553 629.251 542.698Z" fill="white"/>
</mask>
<g mask="url(#mask3_2460_509)">
<path fill-rule="evenodd" clip-rule="evenodd" d="M632.913 499.528V628.758H503.683V499.528H632.913Z" fill="url(#paint3_linear_2460_509)"/>
</g>
<mask id="mask4_2460_509" style="mask-type:luminance" maskUnits="userSpaceOnUse" x="6" y="6" width="1126" height="591">
<path d="M16.9424 459.522C10.9326 489.943 7.44944 520.819 6.50256 551.819C25.9909 567.588 47.0832 582.511 69.5813 596.501C50.2862 551.544 32.7254 505.838 16.9424 459.522ZM1121.24 459.469C1105.44 505.813 1087.85 551.554 1068.53 596.55C1091.06 582.54 1112.17 567.607 1131.69 551.819C1130.75 520.799 1127.26 489.91 1121.24 459.469ZM783.984 118.544C834.792 124.317 885.373 132.143 935.553 141.989C833.487 54.3153 704.272 6.31421 569.095 6.31421C433.899 6.31421 304.645 54.325 202.579 142.037C252.73 132.206 303.277 124.394 354.056 118.616C421.304 86.4609 494.552 70.0403 569.095 70.0403C643.58 70.0403 716.77 86.4368 783.984 118.544Z" fill="white"/>
</mask>
<g mask="url(#mask4_2460_509)">
<path fill-rule="evenodd" clip-rule="evenodd" d="M1131.67 6.32861V596.535H6.52185V6.32861H1131.67Z" fill="url(#paint4_linear_2460_509)"/>
</g>
<mask id="mask5_2460_509" style="mask-type:luminance" maskUnits="userSpaceOnUse" x="9" y="156" width="1121" height="570">
<path d="M223.846 669.629C195.705 659.701 168.714 648.604 143.027 636.439C84.2579 511.929 39.4985 380.965 9.65723 246.498L9.01953 243.619L11.8312 242.74C201.048 183.105 399.763 154.139 598.129 157.197L601.294 157.245V271.996L607.115 272.127C735.273 274.929 863.01 291.934 987.433 322.775L990.674 323.577L989.752 326.785C958.751 434.193 917.431 538.582 866.464 638.082L864.923 641.092L809.612 609.159L810.999 606.444C848.792 532.447 881.005 455.614 907.373 376.82L909.508 370.438L902.914 369.1C783.684 344.848 661.817 333.635 540.167 335.756L536.896 335.814V221.053L530.819 221.179C382.1 224.358 233.957 246.131 90.6204 285.915L84.9874 287.48L86.4512 293.137C119.607 421.473 167.076 545.988 227.706 663.86L229.107 666.585L223.846 669.629ZM384.284 710.861C352.211 705.407 321.012 698.566 290.871 690.436L297.538 686.59L294.736 681.484C233.092 569.1 183.903 449.971 148.438 326.795L147.52 323.582L150.762 322.78C259.267 295.871 370.342 279.518 481.987 273.9L485.368 273.731V337.597L482.315 337.756C399.342 342.09 316.698 352.544 235.276 369.1L228.686 370.443L230.822 376.82C269.441 492.224 320.674 603.308 383.323 707.639L385.004 710.446L384.284 710.861ZM847.323 690.431C816.84 698.663 785.274 705.557 752.814 711.05C763.471 693.407 773.8 675.569 783.8 657.536L785.385 654.677L847.323 690.431ZM995.047 636.493C966.877 649.836 937.123 661.884 906.011 672.513C968.78 552.094 1017.77 424.638 1051.74 293.132L1053.2 287.475L1047.57 285.915C919.847 250.46 788.279 229.309 655.884 222.879L652.826 222.73V158.839L656.198 158.999C815.738 166.487 974.032 194.729 1126.36 242.73L1129.17 243.619L1128.54 246.493C1098.67 381.081 1053.8 511.992 995.047 636.493ZM300.181 408.855C478.006 378.984 660.194 378.984 838.014 408.855L841.864 409.497L840.502 413.149C800.385 520.611 748.925 623.555 687.247 720.045C660.981 722.833 634.237 724.726 607.091 725.644C662.459 644.623 710.166 558.409 749.37 468.421L752.587 461.039L744.582 460.136C628.058 446.952 510.137 446.952 393.618 460.136L385.613 461.044L388.83 468.426C428.034 558.409 475.735 644.623 531.104 725.644C503.958 724.726 477.219 722.833 450.947 720.045C389.27 623.555 337.814 520.611 297.698 413.149L296.335 409.497L300.181 408.855Z" fill="white"/>
</mask>
<g mask="url(#mask5_2460_509)">
<path fill-rule="evenodd" clip-rule="evenodd" d="M1129.16 154.158V725.668H9.03406V154.158H1129.16Z" fill="url(#paint5_linear_2460_509)"/>
</g>
</g>
<defs>
<linearGradient id="paint0_linear_2460_509" x1="1.03233e+06" y1="-11462.9" x2="1.03233e+06" y2="-7.49389e+06" gradientUnits="userSpaceOnUse">
<stop stop-color="white"/>
<stop offset="1" stop-color="white"/>
</linearGradient>
<linearGradient id="paint1_linear_2460_509" x1="2625.77" y1="11.2425" x2="2625.77" y2="-7.50538e+06" gradientUnits="userSpaceOnUse">
<stop stop-color="white"/>
<stop offset="1" stop-color="white"/>
</linearGradient>
<linearGradient id="paint2_linear_2460_509" x1="3.25693e+06" y1="-3.2816e+06" x2="3.25693e+06" y2="-4.21292e+06" gradientUnits="userSpaceOnUse">
<stop stop-color="white"/>
<stop offset="1" stop-color="white"/>
</linearGradient>
<linearGradient id="paint3_linear_2460_509" x1="1.94224e+06" y1="-1.95636e+06" x2="1.94224e+06" y2="-2.45869e+06" gradientUnits="userSpaceOnUse">
<stop stop-color="white"/>
<stop offset="1" stop-color="white"/>
</linearGradient>
<linearGradient id="paint4_linear_2460_509" x1="47310.6" y1="-23849" x2="47310.6" y2="-4.39741e+06" gradientUnits="userSpaceOnUse">
<stop stop-color="white"/>
<stop offset="1" stop-color="white"/>
</linearGradient>
<linearGradient id="paint5_linear_2460_509" x1="1.1749e+06" y1="-33613.9" x2="1.1749e+06" y2="-4.38764e+06" gradientUnits="userSpaceOnUse">
<stop stop-color="white"/>
<stop offset="1" stop-color="white"/>
</linearGradient>
<clipPath id="clip0_2460_509">
<rect width="1138.19" height="1221.77" fill="white"/>
</clipPath>
</defs>
</svg>
